<?xml version="1.0" encoding="UTF-8" standalone="no"?>
<svg
   xmlns:dc="http://purl.org/dc/elements/1.1/"
   xmlns:cc="http://creativecommons.org/ns#"
   xmlns:rdf="http://www.w3.org/1999/02/22-rdf-syntax-ns#"
   xmlns:svg="http://www.w3.org/2000/svg"
   xmlns="http://www.w3.org/2000/svg"
   viewBox="0 0 1121.3333 793.33331"
   height="793.33331"
   width="1121.3333"
   xml:space="preserve"
   id="svg2"
   version="1.1"><metadata
     id="metadata8"><rdf:RDF><cc:Work
         rdf:about=""><dc:format>image/svg+xml</dc:format><dc:type
           rdf:resource="http://purl.org/dc/dcmitype/StillImage" /></cc:Work></rdf:RDF></metadata><defs
     id="defs6"><clipPath
       id="clipPath18"
       clipPathUnits="userSpaceOnUse"><path
         id="path16"
         d="M 588.835,451.738 457.442,320.354 c -12.376,-12.375 -12.376,-32.441 0,-44.818 v 0 L 588.835,144.152 c 12.376,-12.375 32.443,-12.375 44.821,0 v 0 l 131.392,131.384 c 12.377,12.377 12.377,32.443 0,44.818 v 0 L 633.656,451.738 c -6.19,6.187 -14.3,9.282 -22.411,9.282 v 0 c -8.112,0 -16.223,-3.095 -22.41,-9.282" /></clipPath><clipPath
       id="clipPath28"
       clipPathUnits="userSpaceOnUse"><path
         id="path26"
         d="M 445.27304,132.22863 H 777.63762 V 467.0221 H 445.27304 Z" /></clipPath><linearGradient
       id="linearGradient36"
       gradientTransform="matrix(1.3607,0,0,1.3707,-2468.2578,-2302.9707)"
       gradientUnits="userSpaceOnUse"
       y2="2018"
       x2="2263"
       y1="1778"
       x1="2263"><stop
         id="stop30"
         offset="0"
         style="stop-opacity:1;stop-color:#d91920" /><stop
         id="stop32"
         offset="0.520034"
         style="stop-opacity:1;stop-color:#ed1c24" /><stop
         id="stop34"
         offset="1"
         style="stop-opacity:1;stop-color:#ed1c24" /></linearGradient><clipPath
       id="clipPath46"
       clipPathUnits="userSpaceOnUse"><path
         id="path44"
         d="m 611.542,350.394 c -0.141,0 -0.289,0 -0.43,0 v 0 c -0.038,0 -0.076,0 -0.114,0 v 0 c -0.12,0 -0.243,0 -0.363,-0.001 v 0 c -0.024,0 -0.051,0 -0.076,0 v 0 c -0.13,0 -0.288,-10e-4 -0.418,-10e-4 v 0 c -0.038,0 -0.082,0 -0.12,0 v 0 c -0.111,-10e-4 -0.222,-10e-4 -0.332,-0.002 v 0 c -0.035,0 -0.073,0 -0.108,0 v 0 c -0.141,-10e-4 -0.275,-0.002 -0.416,-0.002 v 0 c -0.034,-10e-4 -0.067,-10e-4 -0.102,-10e-4 v 0 c -0.12,-10e-4 -0.228,-10e-4 -0.349,-0.002 v 0 c -0.034,0 -0.07,-10e-4 -0.104,-10e-4 v 0 c -0.141,-0.001 -0.285,-0.002 -0.425,-0.003 v 0 c -0.021,0 -0.05,0 -0.07,-10e-4 v 0 c -0.121,-10e-4 -0.241,-0.002 -0.361,-0.003 v 0 c -0.038,0 -0.08,0 -0.118,-0.001 v 0 c -0.14,-10e-4 -0.288,-0.002 -0.428,-0.004 v 0 c -0.004,0 -0.007,0 -0.011,0 v 0 c -0.15,-0.002 -0.278,-0.003 -0.428,-0.005 v 0 c -0.031,0 -0.059,0 -0.09,-0.001 v 0 c -0.291,-0.003 -0.595,-0.007 -0.886,-0.011 v 0 c -0.024,0 -0.045,0 -0.069,-0.001 v 0 c -0.151,-0.002 -0.285,-0.004 -0.435,-0.006 v 0 c 0,0 -0.008,0 -0.008,0 v 0 c -0.16,-0.002 -0.313,-0.005 -0.473,-0.007 v 0 c -0.007,0 -0.008,0 -0.015,-0.001 v 0 C 552.637,349.51 503.782,339.055 461.531,321.357 v 0 c -0.016,-0.007 -0.031,-0.013 -0.048,-0.021 v 0 c -0.097,-0.04 -0.188,-0.078 -0.285,-0.119 v 0 c -0.039,-0.017 -0.076,-0.032 -0.115,-0.049 v 0 c -0.081,-0.034 -0.175,-0.073 -0.255,-0.107 v 0 c -0.079,-0.033 -0.158,-0.067 -0.236,-0.1 v 0 c -0.04,-0.017 -0.082,-0.034 -0.122,-0.051 v 0 c -1.418,-0.6 -2.825,-1.206 -4.228,-1.822 v 0 c -11.161,-12.442 -10.762,-31.589 1.2,-43.552 v 0 L 588.835,144.152 c 12.376,-12.375 32.443,-12.375 44.821,0 v 0 l 131.392,131.384 c 12.103,12.102 12.371,31.558 0.804,43.984 v 0 c -41.234,17.946 -89.012,28.919 -140.151,30.637 v 0 c -0.01,0 -0.01,0 -0.02,0.001 v 0 c -0.31,0.01 -0.617,0.02 -0.927,0.03 v 0 c -0.02,0 -0.059,0.002 -0.079,0.002 v 0 c -0.099,0.003 -0.189,0.006 -0.288,0.009 v 0 c -0.01,0 -0.023,10e-4 -0.033,10e-4 v 0 c -0.188,0.006 -0.382,0.012 -0.569,0.017 v 0 c -0.03,0.001 -0.057,0.002 -0.087,0.002 v 0 c -0.089,0.003 -0.18,0.006 -0.269,0.008 v 0 c -0.039,0.001 -0.088,0.003 -0.128,0.004 v 0 c -0.154,0.004 -0.311,0.008 -0.465,0.012 v 0 c -0.04,0.001 -0.082,0.003 -0.122,0.004 v 0 c -0.085,0.002 -0.167,0.004 -0.253,0.006 v 0 c -0.06,0.002 -0.102,0.003 -0.162,0.004 v 0 c -0.116,0.003 -0.229,0.006 -0.345,0.009 v 0 c -0.08,0.002 -0.147,0.004 -0.226,0.006 v 0 c -0.072,0.001 -0.145,0.003 -0.217,0.005 v 0 c -0.07,0.001 -0.131,0.003 -0.201,0.004 v 0 c -0.079,0.002 -0.159,0.004 -0.238,0.006 v 0 c -0.11,0.002 -0.215,0.005 -0.325,0.007 v 0 c -0.065,0.002 -0.134,0.003 -0.199,0.004 v 0 c -0.07,0.002 -0.139,0.003 -0.209,0.005 v 0 c -0.071,10e-4 -0.136,0.003 -0.208,0.004 v 0 c -0.12,0.003 -0.23,0.005 -0.35,0.007 v 0 c -0.065,10e-4 -0.128,0.003 -0.193,0.004 v 0 c -0.08,0.001 -0.149,0.003 -0.229,0.004 v 0 c -0.065,10e-4 -0.132,0.002 -0.197,0.004 v 0 c -0.12,0.002 -0.246,0.004 -0.366,0.006 v 0 c -0.054,0.001 -0.099,0.002 -0.154,0.003 v 0 c -0.09,0.001 -0.169,0.003 -0.259,0.004 v 0 c -0.058,10e-4 -0.121,0.002 -0.179,0.003 v 0 c -0.11,0.002 -0.219,0.003 -0.329,0.005 v 0 c -0.059,0.001 -0.115,0.002 -0.173,0.002 v 0 c -0.1,0.002 -0.198,0.003 -0.298,0.005 v 0 c -0.055,0 -0.114,0.001 -0.169,0.002 v 0 c -0.11,0.001 -0.219,0.003 -0.329,0.004 v 0 c -0.027,10e-4 -0.052,10e-4 -0.079,10e-4 v 0 c -0.14,0.002 -0.263,0.004 -0.403,0.005 v 0 c -0.048,0.001 -0.095,0.001 -0.143,0.002 v 0 c -0.1,0.001 -0.217,0.002 -0.317,0.003 v 0 c -0.038,0.001 -0.078,0.001 -0.116,0.001 v 0 c -0.13,0.002 -0.265,0.003 -0.396,0.004 v 0 c -0.048,0.001 -0.098,0.001 -0.146,0.002 v 0 c -0.1,0 -0.204,0.001 -0.304,0.002 v 0 c -0.042,0 -0.079,10e-4 -0.121,10e-4 v 0 c -0.14,0.001 -0.267,0.002 -0.408,0.003 v 0 c -0.038,0 -0.076,10e-4 -0.114,10e-4 v 0 c -0.111,0.001 -0.225,0.001 -0.335,0.002 v 0 c -0.038,0 -0.074,0 -0.112,10e-4 v 0 c -0.141,0 -0.275,0.001 -0.416,0.002 v 0 c -0.031,0 -0.068,0 -0.099,0 v 0 c -0.12,0.001 -0.213,0.001 -0.333,0.002 v 0 c -0.042,0 -0.083,0 -0.124,0 v 0 c -0.141,0 -0.278,10e-4 -0.419,10e-4 v 0 c -0.02,0 -0.042,0 -0.063,0 v 0 c -0.121,0.001 -0.255,0.001 -0.376,0.001 v 0 c -0.038,0 -0.074,0 -0.112,0 v 0 c -0.14,0 -0.287,0 -0.428,0 v 0 c 0,0 0,0 0,0" /></clipPath><clipPath
       id="clipPath260"
       clipPathUnits="userSpaceOnUse"><path
         id="path258"
         d="M 586.229,435.035 474.149,322.96 c -13.817,-13.815 -13.817,-36.215 0,-50.03 v 0 l 112.08,-112.075 c 13.816,-13.815 36.216,-13.815 50.034,0 v 0 L 748.342,272.93 c 13.818,13.815 13.818,36.215 0,50.031 v 0 L 636.263,435.035 c -6.909,6.907 -15.963,10.361 -25.017,10.361 v 0 c -9.055,0 -18.109,-3.454 -25.017,-10.361" /></clipPath><clipPath
       id="clipPath270"
       clipPathUnits="userSpaceOnUse"><path
         id="path268"
         d="M 460.54009,147.16965 H 762.37057 V 449.67413 H 460.54009 Z" /></clipPath><linearGradient
       id="linearGradient280"
       gradientTransform="matrix(1.3607,0,0,1.3638,-2468.2578,-2291.0729)"
       gradientUnits="userSpaceOnUse"
       y2="1790"
       x2="2263"
       y1="2007"
       x1="2263"><stop
         id="stop272"
         offset="0"
         style="stop-opacity:1;stop-color:#d91920" /><stop
         id="stop274"
         offset="0.396865"
         style="stop-opacity:1;stop-color:#ed1c24" /><stop
         id="stop276"
         offset="0.450012"
         style="stop-opacity:1;stop-color:#ed1c24" /><stop
         id="stop278"
         offset="1"
         style="stop-opacity:1;stop-color:#ed1c24" /></linearGradient><clipPath
       id="clipPath290"
       clipPathUnits="userSpaceOnUse"><path
         id="path288"
         d="M 587.704,433.56 475.623,321.485 c -13.001,-13 -13.001,-34.079 0,-47.08 v 0 L 587.704,162.331 c 13.001,-13.001 34.081,-13.001 47.083,0 v 0 l 112.08,112.074 c 13.004,13.001 13.003,34.08 0,47.082 v 0 L 634.787,433.56 c -6.502,6.5 -15.022,9.75 -23.542,9.75 v 0 c -8.52,0 -17.041,-3.25 -23.541,-9.75" /></clipPath><clipPath
       id="clipPath300"
       clipPathUnits="userSpaceOnUse"><path
         id="path298"
         d="M 462.82527,149.65643 H 760.08379 V 448.41681 H 462.82527 Z" /></clipPath><linearGradient
       id="linearGradient310"
       gradientTransform="matrix(1.3607,0,0,1.3677,-2468.2586,-2297.8564)"
       gradientUnits="userSpaceOnUse"
       y2="1791"
       x2="2263"
       y1="2005"
       x1="2263"><stop
         id="stop302"
         offset="0"
         style="stop-opacity:1;stop-color:#fde5dc" /><stop
         id="stop304"
         offset="0.440689"
         style="stop-opacity:1;stop-color:#ed1c24" /><stop
         id="stop306"
         offset="0.500015"
         style="stop-opacity:1;stop-color:#ed1c24" /><stop
         id="stop308"
         offset="1"
         style="stop-opacity:1;stop-color:#ed1c24" /></linearGradient><clipPath
       id="clipPath320"
       clipPathUnits="userSpaceOnUse"><path
         id="path318"
         d="m 611.599,360.785 c -0.129,0 -0.263,0 -0.391,-0.001 v 0 c -0.04,0 -0.087,0 -0.127,0 v 0 c -0.088,0 -0.178,0 -0.266,-10e-4 v 0 c -0.047,0 -0.099,0 -0.146,0 v 0 c -0.084,-0.001 -0.169,-0.001 -0.253,-0.001 v 0 c -0.047,-10e-4 -0.095,-10e-4 -0.142,-10e-4 v 0 c -0.093,-0.001 -0.185,-0.001 -0.278,-0.002 v 0 c -0.036,0 -0.079,-10e-4 -0.115,-10e-4 v 0 c -0.127,-0.001 -0.262,-0.002 -0.39,-0.003 v 0 c -0.018,-10e-4 -0.035,-10e-4 -0.054,-10e-4 v 0 c -0.109,-10e-4 -0.223,-0.002 -0.333,-0.004 v 0 c -0.043,0 -0.088,-10e-4 -0.131,-10e-4 v 0 c -0.088,-0.001 -0.176,-0.002 -0.264,-0.003 v 0 c -0.047,-0.001 -0.092,-0.002 -0.139,-0.002 v 0 c -0.084,-0.002 -0.172,-0.003 -0.256,-0.004 v 0 c -0.047,-10e-4 -0.094,-0.002 -0.141,-0.002 v 0 c -0.096,-0.002 -0.194,-0.003 -0.29,-0.005 v 0 c -0.033,-10e-4 -0.065,-10e-4 -0.097,-0.002 v 0 c -0.131,-0.002 -0.257,-0.004 -0.388,-0.007 v 0 c -0.032,-0.001 -0.059,-0.001 -0.092,-0.002 v 0 c -0.096,-0.002 -0.197,-0.004 -0.293,-0.006 v 0 c -0.047,-10e-4 -0.09,-0.002 -0.136,-0.003 v 0 c -0.083,-0.002 -0.175,-0.004 -0.258,-0.006 v 0 c -0.047,-10e-4 -0.092,-0.002 -0.139,-0.003 v 0 c -0.092,-0.002 -0.182,-0.004 -0.273,-0.007 v 0 c -0.036,0 -0.076,-10e-4 -0.111,-0.002 v 0 c -0.118,-0.003 -0.231,-0.006 -0.349,-0.01 v 0 c -0.014,0 -0.029,0 -0.043,-10e-4 v 0 c -0.131,-0.003 -0.258,-0.007 -0.388,-0.011 v 0 c -0.036,-10e-4 -0.071,-0.002 -0.107,-0.003 v 0 c -0.091,-0.003 -0.183,-0.005 -0.275,-0.008 v 0 c -0.046,-0.002 -0.094,-0.003 -0.141,-0.005 v 0 c -0.087,-0.002 -0.17,-0.005 -0.257,-0.008 v 0 c -0.042,-10e-4 -0.089,-0.003 -0.132,-0.004 v 0 c -0.095,-0.004 -0.181,-0.007 -0.277,-0.01 v 0 c -0.035,-10e-4 -0.074,-0.002 -0.109,-0.004 v 0 c -0.26,-0.009 -0.516,-0.018 -0.775,-0.029 v 0 c -0.032,-0.001 -0.071,-0.002 -0.103,-0.004 v 0 c -0.095,-0.003 -0.19,-0.007 -0.285,-0.011 v 0 c -0.039,-0.002 -0.081,-0.004 -0.12,-0.005 v 0 c -0.09,-0.004 -0.183,-0.008 -0.274,-0.012 v 0 c -0.039,-10e-4 -0.079,-0.003 -0.118,-0.005 v 0 c -0.108,-0.005 -0.214,-0.009 -0.321,-0.014 v 0 c -0.021,-0.001 -0.039,-0.002 -0.06,-0.003 v 0 c -0.129,-0.006 -0.263,-0.012 -0.392,-0.018 v 0 c -0.018,-0.001 -0.039,-0.002 -0.056,-0.003 v 0 c -0.108,-0.005 -0.225,-0.01 -0.332,-0.016 v 0 c -0.036,-0.001 -0.066,-0.003 -0.101,-0.005 v 0 c -0.099,-0.004 -0.191,-0.009 -0.29,-0.014 v 0 c -0.035,-0.002 -0.071,-0.004 -0.106,-0.006 v 0 c -0.099,-0.005 -0.202,-0.01 -0.301,-0.015 v 0 c -0.032,-0.002 -0.055,-0.003 -0.087,-0.005 v 0 c -0.128,-0.007 -0.253,-0.014 -0.382,-0.021 v 0 c 0,0 -10e-4,0 -10e-4,0 v 0 c -0.132,-0.007 -0.268,-0.015 -0.4,-0.022 v 0 c -0.014,-10e-4 -0.033,-0.002 -0.047,-0.003 v 0 c -0.111,-0.006 -0.226,-0.013 -0.337,-0.02 v 0 c -0.031,-0.001 -0.065,-0.003 -0.096,-0.005 v 0 c -0.099,-0.006 -0.195,-0.012 -0.293,-0.018 v 0 c -0.032,-0.002 -0.069,-0.004 -0.101,-0.006 v 0 c -0.098,-0.006 -0.206,-0.013 -0.304,-0.019 v 0 c -0.028,-0.002 -0.055,-0.004 -0.083,-0.005 v 0 c -0.26,-0.017 -0.52,-0.034 -0.779,-0.051 v 0 c -0.017,-10e-4 -0.039,-0.003 -0.057,-0.004 v 0 c -0.11,-0.007 -0.219,-0.015 -0.33,-0.023 v 0 c -0.028,-0.002 -0.056,-0.003 -0.084,-0.005 v 0 c -0.102,-0.008 -0.204,-0.015 -0.306,-0.022 v 0 c -0.028,-0.002 -0.059,-0.004 -0.086,-0.006 v 0 c -0.111,-0.008 -0.23,-0.017 -0.34,-0.025 v 0 c -0.014,-10e-4 -0.028,-0.002 -0.042,-0.003 v 0 c -0.263,-0.019 -0.525,-0.039 -0.787,-0.059 v 0 c -0.017,-10e-4 -0.035,-0.003 -0.052,-0.004 v 0 c -0.11,-0.009 -0.222,-0.017 -0.332,-0.026 v 0 c -0.027,-0.002 -0.051,-0.004 -0.079,-0.006 v 0 c -0.11,-0.009 -0.215,-0.018 -0.325,-0.027 v 0 c -0.02,-10e-4 -0.037,-0.003 -0.058,-0.004 v 0 c -0.388,-0.032 -0.784,-0.066 -1.171,-0.099 v 0 c -0.02,-0.002 -0.038,-0.004 -0.059,-0.006 v 0 c -0.109,-0.009 -0.22,-0.019 -0.329,-0.029 v 0 c -0.024,-0.002 -0.043,-0.004 -0.067,-0.006 v 0 c -0.118,-0.01 -0.235,-0.021 -0.352,-0.032 v 0 c -0.007,0 -0.019,-0.001 -0.026,-0.002 v 0 c -0.394,-0.036 -0.787,-0.073 -1.18,-0.112 v 0 c -0.013,-10e-4 -0.03,-0.003 -0.043,-0.004 v 0 c -0.117,-0.011 -0.236,-0.023 -0.353,-0.035 v 0 c -0.013,-10e-4 -0.025,-0.002 -0.039,-0.004 v 0 c -0.526,-0.052 -1.046,-0.106 -1.569,-0.163 v 0 c -0.007,-0.001 -0.021,-0.002 -0.027,-0.003 v 0 c -0.125,-0.013 -0.249,-0.027 -0.374,-0.041 v 0 c -0.003,0 -0.012,-10e-4 -0.016,-10e-4 v 0 c -0.527,-0.058 -1.055,-0.119 -1.579,-0.181 v 0 c -0.004,0 -0.004,0 -0.007,-0.001 v 0 c -0.657,-0.077 -1.314,-0.159 -1.967,-0.243 v 0 c -0.004,0 -0.008,-10e-4 -0.012,-10e-4 v 0 C 538.311,353.072 500.631,330.675 465.902,299.35 v 0 c -0.377,-8.982 2.864,-18.087 9.721,-24.945 v 0 L 587.704,162.331 c 13.001,-13.001 34.081,-13.001 47.083,0 v 0 l 112.08,112.074 c 7.003,7.001 10.235,16.343 9.695,25.507 v 0 c -3.205,2.878 -6.437,5.681 -9.699,8.401 v 0 c 0,0 -0.006,0.005 -0.006,0.005 v 0 c -0.09,0.075 -0.179,0.149 -0.268,0.223 v 0 c -0.015,0.013 -0.031,0.026 -0.046,0.038 v 0 c -0.083,0.07 -0.165,0.138 -0.248,0.207 v 0 c -0.013,0.011 -0.026,0.021 -0.038,0.031 v 0 c -0.192,0.159 -0.379,0.314 -0.57,0.472 v 0 c -0.013,0.011 -0.032,0.026 -0.044,0.037 v 0 c -0.078,0.063 -0.155,0.127 -0.232,0.191 v 0 c -0.026,0.021 -0.051,0.042 -0.077,0.063 v 0 c -0.071,0.059 -0.142,0.117 -0.213,0.175 v 0 c -0.02,0.017 -0.042,0.035 -0.063,0.052 v 0 c -0.074,0.061 -0.154,0.127 -0.229,0.188 v 0 c -0.02,0.017 -0.038,0.032 -0.059,0.048 v 0 c -0.089,0.074 -0.187,0.154 -0.277,0.228 v 0 c -0.015,0.012 -0.025,0.02 -0.04,0.032 v 0 c -0.075,0.061 -0.155,0.127 -0.23,0.188 v 0 c -0.033,0.027 -0.067,0.055 -0.1,0.082 v 0 c -0.059,0.048 -0.119,0.097 -0.178,0.145 v 0 c -0.036,0.029 -0.072,0.058 -0.107,0.087 v 0 c -0.056,0.046 -0.108,0.088 -0.164,0.133 v 0 c -0.038,0.031 -0.078,0.064 -0.116,0.095 v 0 c -0.063,0.05 -0.126,0.102 -0.188,0.152 v 0 c -0.028,0.023 -0.057,0.046 -0.085,0.068 v 0 c -0.09,0.073 -0.174,0.142 -0.264,0.215 v 0 c -0.036,0.028 -0.069,0.055 -0.105,0.084 v 0 c -0.056,0.045 -0.11,0.088 -0.166,0.133 v 0 c -0.045,0.037 -0.085,0.069 -0.131,0.106 v 0 c -0.043,0.035 -0.089,0.072 -0.132,0.107 v 0 c -0.049,0.039 -0.099,0.08 -0.148,0.118 v 0 c -0.043,0.035 -0.086,0.069 -0.129,0.104 v 0 c -0.046,0.037 -0.093,0.075 -0.139,0.112 v 0 c -0.047,0.037 -0.089,0.071 -0.136,0.109 v 0 c -0.09,0.071 -0.181,0.144 -0.27,0.216 v 0 c -0.038,0.03 -0.077,0.061 -0.115,0.091 v 0 c -0.053,0.043 -0.109,0.087 -0.163,0.13 v 0 c -0.031,0.025 -0.067,0.054 -0.099,0.079 v 0 c -0.056,0.044 -0.113,0.09 -0.169,0.134 v 0 c -0.037,0.03 -0.067,0.054 -0.105,0.084 v 0 c -0.056,0.044 -0.11,0.088 -0.167,0.132 v 0 c -0.028,0.022 -0.048,0.039 -0.076,0.061 v 0 c -0.215,0.17 -0.434,0.343 -0.65,0.513 v 0 c -0.012,0.01 -0.025,0.02 -0.037,0.03 v 0 c -0.072,0.056 -0.146,0.114 -0.218,0.171 v 0 c -0.012,0.01 -0.024,0.019 -0.036,0.028 v 0 c -0.075,0.059 -0.146,0.115 -0.22,0.173 v 0 c -0.013,0.01 -0.017,0.013 -0.029,0.023 v 0 c -30.961,24.283 -64.939,41.027 -106.054,45.428 v 0 c -0.004,0 0.002,0 -0.002,0 v 0 c -0.102,0.011 -0.2,0.021 -0.302,0.032 v 0 c -0.017,0.002 -0.034,0.004 -0.051,0.006 v 0 c -0.099,0.01 -0.197,0.02 -0.297,0.031 v 0 c -0.004,0 -0.013,0.001 -0.017,0.001 v 0 c -0.427,0.045 -0.853,0.087 -1.281,0.129 v 0 c -0.013,10e-4 -0.02,0.002 -0.032,0.003 v 0 c -0.1,0.01 -0.198,0.019 -0.297,0.029 v 0 c -0.017,10e-4 -0.036,0.003 -0.052,0.004 v 0 c -0.1,0.01 -0.198,0.019 -0.297,0.029 v 0 c -0.005,0 0.002,-0.001 -0.003,0 v 0 c -0.315,0.029 -0.625,0.058 -0.942,0.086 v 0 c -0.021,0.001 -0.041,0.003 -0.062,0.005 v 0 c -0.089,0.008 -0.181,0.016 -0.27,0.024 v 0 c -0.03,0.002 -0.058,0.005 -0.087,0.007 v 0 c -0.087,0.008 -0.176,0.016 -0.262,0.023 v 0 c -0.03,0.002 -0.06,0.005 -0.09,0.007 v 0 c -0.3,0.026 -0.598,0.051 -0.899,0.075 v 0 c -0.013,10e-4 -0.025,0.002 -0.038,0.003 v 0 c -0.086,0.007 -0.164,0.013 -0.25,0.02 v 0 c -0.038,0.003 -0.084,0.006 -0.122,0.009 v 0 c -0.08,0.007 -0.154,0.012 -0.233,0.018 v 0 c -0.043,0.004 -0.085,0.007 -0.127,0.01 v 0 c -0.08,0.006 -0.156,0.012 -0.236,0.018 v 0 c -0.042,0.003 -0.077,0.006 -0.12,0.009 v 0 c -0.27,0.02 -0.541,0.04 -0.812,0.059 v 0 c -0.038,0.003 -0.083,0.006 -0.121,0.009 v 0 c -0.077,0.005 -0.152,0.01 -0.228,0.015 v 0 c -0.047,0.004 -0.096,0.007 -0.142,0.01 v 0 c -0.077,0.005 -0.147,0.01 -0.224,0.015 v 0 c -0.046,0.003 -0.095,0.007 -0.142,0.01 v 0 c -0.077,0.005 -0.148,0.009 -0.225,0.014 v 0 c -0.038,0.003 -0.076,0.005 -0.114,0.008 v 0 c -0.15,0.01 -0.304,0.019 -0.454,0.029 v 0 c -0.047,0.003 -0.087,0.005 -0.134,0.008 v 0 c -0.066,0.004 -0.136,0.008 -0.203,0.012 v 0 c -0.055,0.004 -0.117,0.008 -0.172,0.011 v 0 c -0.067,0.004 -0.13,0.008 -0.196,0.011 v 0 c -0.064,0.004 -0.121,0.008 -0.185,0.011 v 0 c -0.063,0.004 -0.126,0.008 -0.189,0.011 v 0 c -0.064,0.004 -0.129,0.008 -0.193,0.011 v 0 c -0.059,0.003 -0.121,0.007 -0.181,0.01 v 0 c -0.116,0.007 -0.233,0.013 -0.349,0.019 v 0 c -0.053,0.003 -0.099,0.006 -0.152,0.008 v 0 c -0.077,0.004 -0.153,0.008 -0.23,0.012 v 0 c -0.053,0.003 -0.114,0.006 -0.167,0.009 v 0 c -0.068,0.003 -0.142,0.007 -0.21,0.01 v 0 c -0.06,0.003 -0.113,0.006 -0.173,0.009 v 0 c -0.069,0.003 -0.139,0.007 -0.207,0.01 v 0 c -0.06,0.003 -0.115,0.006 -0.175,0.008 v 0 c -0.09,0.005 -0.174,0.009 -0.265,0.013 v 0 c -0.035,10e-4 -0.071,0.003 -0.106,0.005 v 0 c -0.121,0.005 -0.244,0.011 -0.365,0.016 v 0 c -0.049,0.002 -0.099,0.004 -0.149,0.006 v 0 c -0.077,0.004 -0.161,0.007 -0.238,0.01 v 0 c -0.05,0.002 -0.101,0.005 -0.151,0.007 v 0 c -0.078,0.003 -0.157,0.006 -0.234,0.009 v 0 c -0.054,0.002 -0.101,0.004 -0.154,0.006 v 0 c -0.082,0.003 -0.167,0.007 -0.249,0.01 v 0 c -0.046,0.001 -0.089,0.003 -0.135,0.005 v 0 c -0.125,0.005 -0.241,0.009 -0.367,0.013 v 0 c -0.042,0.002 -0.083,0.003 -0.126,0.005 v 0 c -0.086,0.003 -0.168,0.005 -0.255,0.008 v 0 c -0.053,0.002 -0.107,0.004 -0.161,0.006 v 0 c -0.078,0.002 -0.146,0.004 -0.224,0.007 v 0 c -0.057,0.002 -0.108,0.003 -0.165,0.005 v 0 c -0.078,0.003 -0.152,0.005 -0.23,0.007 v 0 c -0.05,0.002 -0.102,0.003 -0.152,0.005 v 0 c -0.091,0.002 -0.181,0.005 -0.273,0.008 v 0 c -0.039,10e-4 -0.073,0.002 -0.112,0.003 v 0 c -0.126,0.003 -0.249,0.006 -0.375,0.01 v 0 c -0.039,0.001 -0.087,0.002 -0.126,0.003 v 0 c -0.083,0.002 -0.171,0.004 -0.254,0.006 v 0 c -0.053,0.001 -0.106,0.002 -0.16,0.004 v 0 c -0.078,0.002 -0.154,0.003 -0.232,0.005 v 0 c -0.05,10e-4 -0.108,0.002 -0.158,0.003 v 0 c -0.083,0.002 -0.16,0.004 -0.243,0.005 v 0 c -0.047,0.001 -0.095,0.002 -0.141,0.003 v 0 c -0.123,0.003 -0.254,0.005 -0.376,0.007 v 0 c -0.029,0.001 -0.059,0.001 -0.088,0.002 v 0 c -0.1,0.001 -0.197,0.003 -0.298,0.005 v 0 c -0.05,0 -0.1,0.001 -0.151,0.002 v 0 c -0.078,0.001 -0.159,0.002 -0.238,0.003 v 0 c -0.051,0.001 -0.105,0.002 -0.155,0.003 v 0 c -0.084,10e-4 -0.163,0.002 -0.247,0.003 v 0 c -0.05,0 -0.094,10e-4 -0.144,10e-4 v 0 c -0.097,0.002 -0.189,0.003 -0.286,0.004 v 0 c -0.036,0 -0.066,0 -0.102,10e-4 v 0 c -0.127,0.001 -0.252,0.002 -0.379,0.003 v 0 c -0.04,0 -0.084,10e-4 -0.124,10e-4 v 0 c -0.092,10e-4 -0.181,10e-4 -0.274,0.002 v 0 c -0.046,0 -0.09,0 -0.137,0 v 0 c -0.083,10e-4 -0.17,10e-4 -0.254,0.002 v 0 c -0.051,0 -0.097,0 -0.147,0 v 0 c -0.089,10e-4 -0.18,10e-4 -0.268,10e-4 v 0 c -0.04,0 -0.082,0 -0.122,0 v 0 c -0.133,0.001 -0.259,0.001 -0.391,0.001 v 0 c 0,0 0,0 0,0" /></clipPath><clipPath
       id="clipPath430"
       clipPathUnits="userSpaceOnUse"><path
         id="path428"
         d="M 0,595 H 841 V 0 H 0 Z" /></clipPath><clipPath
       id="clipPath450"
       clipPathUnits="userSpaceOnUse"><path
         id="path448"
         d="m 504.268,293.42 c -1.477,-0.969 -3.008,-2.462 -3.489,-4.121 v 0 c -0.847,-2.925 1.165,-5.285 4.089,-5.285 v 0 h 59.365 l 105.088,113.251 c 0,0 -146.586,-91.898 -165.053,-103.845" /></clipPath><clipPath
       id="clipPath462"
       clipPathUnits="userSpaceOnUse"><path
         id="path460"
         d="M 0,595 H 841 V 0 H 0 Z" /></clipPath><clipPath
       id="clipPath474"
       clipPathUnits="userSpaceOnUse"><path
         id="path472"
         d="m 590.703,284.016 h 63.454 c 0.111,0.003 0.557,10e-4 1.107,0 v 0 c 0.525,-0.002 1.146,-0.004 1.657,0 v 0 c 7.162,0.067 13.559,5.898 13.559,13.076 v 0 c 0.415,17.758 1.251,100.411 1.251,100.411 v 0 z" /></clipPath><clipPath
       id="clipPath486"
       clipPathUnits="userSpaceOnUse"><path
         id="path484"
         d="M 0,595 H 841 V 0 H 0 Z" /></clipPath></defs><g
     transform="matrix(1.3333333,0,0,-1.3333333,0,793.33333)"
     id="g10"><g
       id="g12"><g
         clip-path="url(#clipPath18)"
         id="g14"><g
           id="g20"><g
             id="g22"><g
               clip-path="url(#clipPath28)"
               id="g24"><path
                 id="path38"
                 style="fill:url(#linearGradient36);stroke:none"
                 d="M 588.835,451.738 457.442,320.354 c -12.376,-12.375 -12.376,-32.441 0,-44.818 v 0 L 588.835,144.152 c 12.376,-12.375 32.443,-12.375 44.821,0 v 0 l 131.392,131.384 c 12.377,12.377 12.377,32.443 0,44.818 v 0 L 633.656,451.738 c -6.19,6.187 -14.3,9.282 -22.411,9.282 v 0 c -8.112,0 -16.223,-3.095 -22.41,-9.282" /></g></g></g></g></g><g
       id="g40"><g
         clip-path="url(#clipPath46)"
         id="g42"><path
           id="path48"
           style="fill:#ed1c24;fill-opacity:1;fill-rule:nonzero;stroke:none"
           d="m 313.277,350.395 h 596.53 V -78.243 h -596.53 z" /><g
           transform="translate(313.2861,136.0752)"
           id="g50"><path
             id="path52"
             style="fill:#ed1c24;fill-opacity:1;fill-rule:nonzero;stroke:none"
             d="M 0,0 C 0,118.363 133.531,214.312 298.256,214.312 462.98,214.312 596.512,118.363 596.512,0 596.512,-118.362 462.98,-214.312 298.256,-214.312 133.531,-214.312 0,-118.362 0,0" /></g><g
           transform="translate(319.1328,136.0752)"
           id="g54"><path
             id="path56"
             style="fill:#ec1c24;fill-opacity:1;fill-rule:nonzero;stroke:none"
             d="m 0,0 c 0,116.042 130.914,210.109 292.409,210.109 161.493,0 292.406,-94.067 292.406,-210.109 0,-116.042 -130.913,-210.109 -292.406,-210.109 C 130.914,-210.109 0,-116.042 0,0" /></g><g
           transform="translate(324.9814,136.0742)"
           id="g58"><path
             id="path60"
             style="fill:#eb1c24;fill-opacity:1;fill-rule:nonzero;stroke:none"
             d="m 0,0 c 0,113.722 128.294,205.907 286.559,205.907 158.264,0 286.558,-92.185 286.558,-205.907 0,-113.722 -128.294,-205.907 -286.558,-205.907 C 128.294,-205.907 0,-113.722 0,0" /></g><g
           transform="translate(330.8271,136.0742)"
           id="g62"><path
             id="path64"
             style="fill:#eb1c24;fill-opacity:1;fill-rule:nonzero;stroke:none"
             d="m 0,0 c 0,111.399 125.678,201.705 280.712,201.705 155.035,0 280.712,-90.306 280.712,-201.705 0,-111.401 -125.677,-201.707 -280.712,-201.707 C 125.678,-201.707 0,-111.401 0,0" /></g><g
           transform="translate(336.6758,136.0723)"
           id="g66"><path
             id="path68"
             style="fill:#ea1c23;fill-opacity:1;fill-rule:nonzero;stroke:none"
             d="M 0,0 C 0,109.08 123.058,197.504 274.863,197.504 426.668,197.504 549.726,109.08 549.726,0 549.726,-109.079 426.668,-197.503 274.863,-197.503 123.058,-197.503 0,-109.079 0,0" /></g><g
           transform="translate(342.5225,136.0723)"
           id="g70"><path
             id="path72"
             style="fill:#e91b23;fill-opacity:1;fill-rule:nonzero;stroke:none"
             d="M 0,0 C 0,106.759 120.44,193.301 269.015,193.301 417.591,193.301 538.03,106.759 538.03,0 538.03,-106.76 417.591,-193.302 269.015,-193.302 120.44,-193.302 0,-106.76 0,0" /></g><g
           transform="translate(348.3701,136.0723)"
           id="g74"><path
             id="path76"
             style="fill:#e81b23;fill-opacity:1;fill-rule:nonzero;stroke:none"
             d="m 0,0 c 0,104.437 117.821,189.098 263.166,189.098 145.345,0 263.167,-84.661 263.167,-189.098 0,-104.438 -117.822,-189.101 -263.167,-189.101 C 117.821,-189.101 0,-104.438 0,0" /></g><g
           transform="translate(354.2168,136.0703)"
           id="g78"><path
             id="path80"
             style="fill:#e81b23;fill-opacity:1;fill-rule:nonzero;stroke:none"
             d="m 0,0 c 0,102.117 115.205,184.896 257.319,184.896 142.115,0 257.318,-82.779 257.318,-184.896 0,-102.115 -115.203,-184.896 -257.318,-184.896 C 115.205,-184.896 0,-102.115 0,0" /></g><g
           transform="translate(360.0645,136.0703)"
           id="g82"><path
             id="path84"
             style="fill:#e71b23;fill-opacity:1;fill-rule:nonzero;stroke:none"
             d="M 0,0 C 0,99.796 112.586,180.694 251.471,180.694 390.354,180.694 502.939,99.796 502.939,0 502.939,-99.796 390.354,-180.694 251.471,-180.694 112.586,-180.694 0,-99.796 0,0" /></g><g
           transform="translate(365.9121,136.0684)"
           id="g86"><path
             id="path88"
             style="fill:#e61b23;fill-opacity:1;fill-rule:nonzero;stroke:none"
             d="M 0,0 C 0,97.476 109.968,176.492 245.621,176.492 381.277,176.492 491.243,97.476 491.243,0 491.243,-97.475 381.277,-176.491 245.621,-176.491 109.968,-176.491 0,-97.475 0,0" /></g><g
           transform="translate(371.7598,136.0684)"
           id="g90"><path
             id="path92"
             style="fill:#e51b23;fill-opacity:1;fill-rule:nonzero;stroke:none"
             d="M 0,0 C 0,95.154 107.349,172.289 239.773,172.289 372.197,172.289 479.546,95.154 479.546,0 479.546,-95.153 372.197,-172.29 239.773,-172.29 107.349,-172.29 0,-95.153 0,0" /></g><g
           transform="translate(377.6064,136.0674)"
           id="g94"><path
             id="path96"
             style="fill:#e41b22;fill-opacity:1;fill-rule:nonzero;stroke:none"
             d="M 0,0 C 0,92.833 104.731,168.087 233.926,168.087 363.12,168.087 467.852,92.833 467.852,0 467.852,-92.833 363.12,-168.087 233.926,-168.087 104.731,-168.087 0,-92.833 0,0" /></g><g
           transform="translate(383.4541,136.0674)"
           id="g98"><path
             id="path100"
             style="fill:#e31b22;fill-opacity:1;fill-rule:nonzero;stroke:none"
             d="M 0,0 C 0,90.512 102.112,163.884 228.076,163.884 354.043,163.884 456.154,90.512 456.154,0 456.154,-90.513 354.043,-163.886 228.076,-163.886 102.112,-163.886 0,-90.513 0,0" /></g><g
           transform="translate(389.3008,136.0654)"
           id="g102"><path
             id="path104"
             style="fill:#e31b22;fill-opacity:1;fill-rule:nonzero;stroke:none"
             d="m 0,0 c 0,88.192 99.495,159.683 222.229,159.683 122.736,0 222.229,-71.491 222.229,-159.683 0,-88.19 -99.493,-159.682 -222.229,-159.682 C 99.495,-159.682 0,-88.19 0,0" /></g><g
           transform="translate(395.1484,136.0654)"
           id="g106"><path
             id="path108"
             style="fill:#e21a22;fill-opacity:1;fill-rule:nonzero;stroke:none"
             d="m 0,0 c 0,85.871 96.876,155.48 216.381,155.48 119.504,0 216.381,-69.609 216.381,-155.48 0,-85.871 -96.877,-155.48 -216.381,-155.48 C 96.876,-155.48 0,-85.871 0,0" /></g><g
           transform="translate(400.9951,136.0654)"
           id="g110"><path
             id="path112"
             style="fill:#e11a22;fill-opacity:1;fill-rule:nonzero;stroke:none"
             d="M 0,0 C 0,83.55 94.258,151.277 210.533,151.277 326.808,151.277 421.065,83.55 421.065,0 c 0,-83.551 -94.257,-151.278 -210.532,-151.278 C 94.258,-151.278 0,-83.551 0,0" /></g><g
           transform="translate(406.8437,136.0635)"
           id="g114"><path
             id="path116"
             style="fill:#e01a22;fill-opacity:1;fill-rule:nonzero;stroke:none"
             d="m 0,0 c 0,81.229 91.639,147.076 204.684,147.076 113.045,0 204.684,-65.847 204.684,-147.076 0,-81.229 -91.639,-147.075 -204.684,-147.075 C 91.639,-147.075 0,-81.229 0,0" /></g><g
           transform="translate(412.6904,136.0635)"
           id="g118"><path
             id="path120"
             style="fill:#df1a22;fill-opacity:1;fill-rule:nonzero;stroke:none"
             d="m 0,0 c 0,78.908 89.021,142.873 198.837,142.873 109.814,0 198.835,-63.965 198.835,-142.873 0,-78.908 -89.021,-142.874 -198.835,-142.874 C 89.021,-142.874 0,-78.908 0,0" /></g><g
           transform="translate(418.5381,136.0625)"
           id="g122"><path
             id="path124"
             style="fill:#df1a21;fill-opacity:1;fill-rule:nonzero;stroke:none"
             d="m 0,0 c 0,76.587 86.402,138.672 192.987,138.672 106.586,0 192.988,-62.085 192.988,-138.672 0,-76.587 -86.402,-138.671 -192.988,-138.671 C 86.402,-138.671 0,-76.587 0,0" /></g><g
           transform="translate(424.3848,136.0625)"
           id="g126"><path
             id="path128"
             style="fill:#de1a21;fill-opacity:1;fill-rule:nonzero;stroke:none"
             d="M 0,0 C 0,74.266 83.784,134.469 187.14,134.469 290.494,134.469 374.279,74.266 374.279,0 374.279,-74.268 290.494,-134.469 187.14,-134.469 83.784,-134.469 0,-74.268 0,0" /></g><g
           transform="translate(430.2324,136.0605)"
           id="g130"><path
             id="path132"
             style="fill:#dd1a21;fill-opacity:1;fill-rule:nonzero;stroke:none"
             d="M 0,0 C 0,71.946 81.166,130.268 181.29,130.268 281.417,130.268 362.582,71.946 362.582,0 362.582,-71.945 281.417,-130.266 181.29,-130.266 81.166,-130.266 0,-71.945 0,0" /></g><g
           transform="translate(436.0801,136.0605)"
           id="g134"><path
             id="path136"
             style="fill:#dc1a21;fill-opacity:1;fill-rule:nonzero;stroke:none"
             d="m 0,0 c 0,69.625 78.548,126.065 175.442,126.065 96.896,0 175.443,-56.44 175.443,-126.065 0,-69.624 -78.547,-126.063 -175.443,-126.063 C 78.548,-126.063 0,-69.624 0,0" /></g><g
           transform="translate(441.9277,136.0596)"
           id="g138"><path
             id="path140"
             style="fill:#dc1a21;fill-opacity:1;fill-rule:nonzero;stroke:none"
             d="M 0,0 C 0,67.305 75.93,121.862 169.594,121.862 263.26,121.862 339.189,67.305 339.189,0 339.189,-67.303 263.26,-121.861 169.594,-121.861 75.93,-121.861 0,-67.303 0,0" /></g><g
           transform="translate(447.7744,136.0596)"
           id="g142"><path
             id="path144"
             style="fill:#db1921;fill-opacity:1;fill-rule:nonzero;stroke:none"
             d="m 0,0 c 0,64.981 73.312,117.659 163.746,117.659 90.437,0 163.747,-52.678 163.747,-117.659 0,-64.983 -73.31,-117.661 -163.747,-117.661 C 73.312,-117.661 0,-64.983 0,0" /></g><g
           transform="translate(453.6221,136.0576)"
           id="g146"><path
             id="path148"
             style="fill:#da1921;fill-opacity:1;fill-rule:nonzero;stroke:none"
             d="m 0,0 c 0,62.662 70.692,113.458 157.898,113.458 87.206,0 157.898,-50.796 157.898,-113.458 0,-62.661 -70.692,-113.457 -157.898,-113.457 C 70.692,-113.457 0,-62.661 0,0" /></g><g
           transform="translate(459.4687,136.0576)"
           id="g150"><path
             id="path152"
             style="fill:#d91920;fill-opacity:1;fill-rule:nonzero;stroke:none"
             d="M 0,0 C 0,60.341 68.075,109.256 152.051,109.256 236.026,109.256 304.1,60.341 304.1,0 304.1,-60.341 236.026,-109.256 152.051,-109.256 68.075,-109.256 0,-60.341 0,0" /></g><g
           transform="translate(465.3164,136.0576)"
           id="g154"><path
             id="path156"
             style="fill:#d81920;fill-opacity:1;fill-rule:nonzero;stroke:none"
             d="m 0,0 c 0,58.02 65.457,105.053 146.201,105.053 80.746,0 146.202,-47.033 146.202,-105.053 0,-58.021 -65.456,-105.055 -146.202,-105.055 C 65.457,-105.055 0,-58.021 0,0" /></g><g
           transform="translate(471.1641,136.0557)"
           id="g158"><path
             id="path160"
             style="fill:#d71920;fill-opacity:1;fill-rule:nonzero;stroke:none"
             d="M 0,0 C 0,55.7 62.838,100.852 140.354,100.852 217.869,100.852 280.706,55.7 280.706,0 c 0,-55.699 -62.837,-100.852 -140.352,-100.852 C 62.838,-100.852 0,-55.699 0,0" /></g><g
           transform="translate(477.0117,136.0557)"
           id="g162"><path
             id="path164"
             style="fill:#d71920;fill-opacity:1;fill-rule:nonzero;stroke:none"
             d="m 0,0 c 0,53.379 60.219,96.649 134.504,96.649 74.286,0 134.505,-43.27 134.505,-96.649 0,-53.379 -60.219,-96.649 -134.505,-96.649 C 60.219,-96.649 0,-53.379 0,0" /></g><g
           transform="translate(482.8574,136.0547)"
           id="g166"><path
             id="path168"
             style="fill:#d61920;fill-opacity:1;fill-rule:nonzero;stroke:none"
             d="m 0,0 c 0,51.058 57.603,92.447 128.657,92.447 71.057,0 128.656,-41.389 128.656,-92.447 0,-51.058 -57.599,-92.446 -128.656,-92.446 C 57.603,-92.446 0,-51.058 0,0" /></g><g
           transform="translate(488.7061,136.0547)"
           id="g170"><path
             id="path172"
             style="fill:#d51920;fill-opacity:1;fill-rule:nonzero;stroke:none"
             d="m 0,0 c 0,48.735 54.982,88.244 122.809,88.244 67.827,0 122.808,-39.509 122.808,-88.244 0,-48.737 -54.981,-88.245 -122.808,-88.245 C 54.982,-88.245 0,-48.737 0,0" /></g><g
           transform="translate(494.5527,136.0527)"
           id="g174"><path
             id="path176"
             style="fill:#d41920;fill-opacity:1;fill-rule:nonzero;stroke:none"
             d="m 0,0 c 0,46.416 52.365,84.043 116.961,84.043 64.596,0 116.96,-37.627 116.96,-84.043 0,-46.416 -52.364,-84.041 -116.96,-84.041 C 52.365,-84.041 0,-46.416 0,0" /></g><g
           transform="translate(500.4014,136.0527)"
           id="g178"><path
             id="path180"
             style="fill:#d41820;fill-opacity:1;fill-rule:nonzero;stroke:none"
             d="m 0,0 c 0,44.095 49.745,79.839 111.111,79.839 61.366,0 111.113,-35.744 111.113,-79.839 0,-44.096 -49.747,-79.84 -111.113,-79.84 C 49.745,-79.84 0,-44.096 0,0" /></g><g
           transform="translate(506.249,136.0518)"
           id="g182"><path
             id="path184"
             style="fill:#d3181f;fill-opacity:1;fill-rule:nonzero;stroke:none"
             d="m 0,0 c 0,41.774 47.127,75.638 105.264,75.638 58.134,0 105.262,-33.864 105.262,-75.638 0,-41.773 -47.128,-75.638 -105.262,-75.638 C 47.127,-75.638 0,-41.773 0,0" /></g><g
           transform="translate(512.0957,136.0498)"
           id="g186"><path
             id="path188"
             style="fill:#d2181f;fill-opacity:1;fill-rule:nonzero;stroke:none"
             d="m 0,0 c 0,39.455 44.509,71.436 99.415,71.436 54.907,0 99.416,-31.981 99.416,-71.436 0,-39.451 -44.509,-71.435 -99.416,-71.435 C 44.509,-71.435 0,-39.451 0,0" /></g><g
           transform="translate(517.9414,136.0498)"
           id="g190"><path
             id="path192"
             style="fill:#d1181f;fill-opacity:1;fill-rule:nonzero;stroke:none"
             d="m 0,0 c 0,37.133 41.893,67.232 93.568,67.232 51.676,0 93.568,-30.099 93.568,-67.232 0,-37.131 -41.892,-67.231 -93.568,-67.231 C 41.893,-67.231 0,-37.131 0,0" /></g><g
           transform="translate(523.7891,136.0498)"
           id="g194"><path
             id="path196"
             style="fill:#d0181f;fill-opacity:1;fill-rule:nonzero;stroke:none"
             d="m 0,0 c 0,34.812 39.273,63.03 87.721,63.03 48.446,0 87.718,-28.218 87.718,-63.03 0,-34.811 -39.272,-63.03 -87.718,-63.03 C 39.273,-63.03 0,-34.811 0,0" /></g><g
           transform="translate(529.6387,136.0488)"
           id="g198"><path
             id="path200"
             style="fill:#d0181f;fill-opacity:1;fill-rule:nonzero;stroke:none"
             d="M 0,0 C 0,32.49 36.652,58.828 81.869,58.828 127.086,58.828 163.74,32.49 163.74,0 163.74,-32.49 127.086,-58.828 81.869,-58.828 36.652,-58.828 0,-32.49 0,0" /></g><g
           transform="translate(535.4844,136.0479)"
           id="g202"><path
             id="path204"
             style="fill:#cf181f;fill-opacity:1;fill-rule:nonzero;stroke:none"
             d="m 0,0 c 0,30.17 34.036,54.626 76.022,54.626 41.988,0 76.023,-24.456 76.023,-54.626 0,-30.169 -34.035,-54.626 -76.023,-54.626 C 34.036,-54.626 0,-30.169 0,0" /></g><g
           transform="translate(541.3311,136.0479)"
           id="g206"><path
             id="path208"
             style="fill:#ce181e;fill-opacity:1;fill-rule:nonzero;stroke:none"
             d="m 0,0 c 0,27.849 31.418,50.423 70.176,50.423 38.755,0 70.173,-22.574 70.173,-50.423 0,-27.849 -31.418,-50.425 -70.173,-50.425 C 31.418,-50.425 0,-27.849 0,0" /></g><g
           transform="translate(547.1787,136.0459)"
           id="g210"><path
             id="path212"
             style="fill:#cd181e;fill-opacity:1;fill-rule:nonzero;stroke:none"
             d="m 0,0 c 0,25.529 28.8,46.223 64.327,46.223 35.527,0 64.325,-20.694 64.325,-46.223 0,-25.527 -28.798,-46.222 -64.325,-46.222 C 28.8,-46.222 0,-25.527 0,0" /></g><g
           transform="translate(553.0273,136.0459)"
           id="g214"><path
             id="path216"
             style="fill:#cc171e;fill-opacity:1;fill-rule:nonzero;stroke:none"
             d="m 0,0 c 0,23.208 26.18,42.02 58.478,42.02 32.296,0 58.477,-18.812 58.477,-42.02 0,-23.207 -26.181,-42.02 -58.477,-42.02 C 26.18,-42.02 0,-23.207 0,0" /></g><g
           transform="translate(558.874,136.0449)"
           id="g218"><path
             id="path220"
             style="fill:#cc171e;fill-opacity:1;fill-rule:nonzero;stroke:none"
             d="M 0,0 C 0,20.886 23.562,37.816 52.629,37.816 81.696,37.816 105.26,20.886 105.26,0 105.26,-20.886 81.696,-37.817 52.629,-37.817 23.562,-37.817 0,-20.886 0,0" /></g><g
           transform="translate(564.7207,136.0449)"
           id="g222"><path
             id="path224"
             style="fill:#cb171e;fill-opacity:1;fill-rule:nonzero;stroke:none"
             d="M 0,0 C 0,18.564 20.944,33.614 46.782,33.614 72.619,33.614 93.563,18.564 93.563,0 93.563,-18.565 72.619,-33.616 46.782,-33.616 20.944,-33.616 0,-18.565 0,0" /></g><g
           transform="translate(570.5684,136.043)"
           id="g226"><path
             id="path228"
             style="fill:#ca171e;fill-opacity:1;fill-rule:nonzero;stroke:none"
             d="M 0,0 C 0,16.245 18.326,29.413 40.934,29.413 63.54,29.413 81.866,16.245 81.866,0 81.866,-16.244 63.54,-29.412 40.934,-29.412 18.326,-29.412 0,-16.244 0,0" /></g><g
           transform="translate(576.416,136.043)"
           id="g230"><path
             id="path232"
             style="fill:#c9171e;fill-opacity:1;fill-rule:nonzero;stroke:none"
             d="M 0,0 C 0,13.924 15.708,25.21 35.084,25.21 54.462,25.21 70.169,13.924 70.169,0 70.169,-13.924 54.462,-25.21 35.084,-25.21 15.708,-25.21 0,-13.924 0,0" /></g><g
           transform="translate(582.2627,136.042)"
           id="g234"><path
             id="path236"
             style="fill:#c8171e;fill-opacity:1;fill-rule:nonzero;stroke:none"
             d="m 0,0 c 0,11.604 13.091,21.009 29.236,21.009 16.148,0 29.238,-9.405 29.238,-21.009 0,-11.603 -13.09,-21.008 -29.238,-21.008 C 13.091,-21.008 0,-11.603 0,0" /></g><g
           transform="translate(588.1104,136.042)"
           id="g238"><path
             id="path240"
             style="fill:#c8171d;fill-opacity:1;fill-rule:nonzero;stroke:none"
             d="M 0,0 C 0,9.282 10.472,16.806 23.389,16.806 36.306,16.806 46.776,9.282 46.776,0 46.776,-9.283 36.306,-16.807 23.389,-16.807 10.472,-16.807 0,-9.283 0,0" /></g><g
           transform="translate(593.958,136.041)"
           id="g242"><path
             id="path244"
             style="fill:#c7171d;fill-opacity:1;fill-rule:nonzero;stroke:none"
             d="M 0,0 C 0,6.962 7.853,12.604 17.54,12.604 27.228,12.604 35.081,6.962 35.081,0 35.081,-6.961 27.228,-12.604 17.54,-12.604 7.853,-12.604 0,-6.961 0,0" /></g><g
           transform="translate(599.8057,136.04)"
           id="g246"><path
             id="path248"
             style="fill:#c6171d;fill-opacity:1;fill-rule:nonzero;stroke:none"
             d="M 0,0 C 0,4.64 5.234,8.401 11.69,8.401 18.148,8.401 23.384,4.64 23.384,0 23.384,-4.641 18.148,-8.401 11.69,-8.401 5.234,-8.401 0,-4.641 0,0" /></g><g
           transform="translate(605.6523,136.04)"
           id="g250"><path
             id="path252"
             style="fill:#c5171d;fill-opacity:1;fill-rule:nonzero;stroke:none"
             d="m 0,0 c 0,2.318 2.617,4.198 5.844,4.198 3.227,0 5.844,-1.88 5.844,-4.198 0,-2.319 -2.617,-4.199 -5.844,-4.199 C 2.617,-4.199 0,-2.319 0,0" /></g></g></g><g
       id="g254"><g
         clip-path="url(#clipPath260)"
         id="g256"><g
           id="g262"><g
             id="g264"><g
               clip-path="url(#clipPath270)"
               id="g266"><path
                 id="path282"
                 style="fill:url(#linearGradient280);stroke:none"
                 d="M 586.229,435.035 474.149,322.96 c -13.817,-13.815 -13.817,-36.215 0,-50.03 v 0 l 112.08,-112.075 c 13.816,-13.815 36.216,-13.815 50.034,0 v 0 L 748.342,272.93 c 13.818,13.815 13.818,36.215 0,50.031 v 0 L 636.263,435.035 c -6.909,6.907 -15.963,10.361 -25.017,10.361 v 0 c -9.055,0 -18.109,-3.454 -25.017,-10.361" /></g></g></g></g></g><g
       id="g284"><g
         clip-path="url(#clipPath290)"
         id="g286"><g
           id="g292"><g
             id="g294"><g
               clip-path="url(#clipPath300)"
               id="g296"><path
                 id="path312"
                 style="fill:url(#linearGradient310);stroke:none"
                 d="M 587.704,433.56 475.623,321.485 c -13.001,-13 -13.001,-34.079 0,-47.08 v 0 L 587.704,162.331 c 13.001,-13.001 34.081,-13.001 47.083,0 v 0 l 112.08,112.074 c 13.004,13.001 13.003,34.08 0,47.082 v 0 L 634.787,433.56 c -6.502,6.5 -15.022,9.75 -23.542,9.75 v 0 c -8.52,0 -17.041,-3.25 -23.541,-9.75" /></g></g></g></g></g><g
       id="g314"><g
         clip-path="url(#clipPath320)"
         id="g316"><path
           id="path322"
           style="fill:#ed1c24;fill-opacity:1;fill-rule:nonzero;stroke:none"
           d="M 313.039,360.785 H 910.044 V -78.218 H 313.039 Z" /><g
           transform="translate(313.0937,141.2842)"
           id="g324"><path
             id="path326"
             style="fill:#ed1c24;fill-opacity:1;fill-rule:nonzero;stroke:none"
             d="m 0,0 c 0,121.207 133.618,219.464 298.448,219.464 164.83,0 298.448,-98.257 298.448,-219.464 0,-121.209 -133.618,-219.465 -298.448,-219.465 C 133.618,-219.465 0,-121.209 0,0" /></g><g
           transform="translate(325.0303,141.2842)"
           id="g328"><path
             id="path330"
             style="fill:#ec1c24;fill-opacity:1;fill-rule:nonzero;stroke:none"
             d="M 0,0 C 0,116.36 128.273,210.685 286.51,210.685 444.745,210.685 573.019,116.36 573.019,0 573.019,-116.36 444.745,-210.687 286.51,-210.687 128.273,-210.687 0,-116.36 0,0" /></g><g
           transform="translate(336.9668,141.2842)"
           id="g332"><path
             id="path334"
             style="fill:#eb1c24;fill-opacity:1;fill-rule:nonzero;stroke:none"
             d="M 0,0 C 0,111.512 122.928,201.907 274.57,201.907 426.214,201.907 549.142,111.512 549.142,0 549.142,-111.511 426.214,-201.907 274.57,-201.907 122.928,-201.907 0,-111.511 0,0" /></g><g
           transform="translate(348.9023,141.2842)"
           id="g336"><path
             id="path338"
             style="fill:#eb1c24;fill-opacity:1;fill-rule:nonzero;stroke:none"
             d="m 0,0 c 0,106.663 117.584,193.128 262.634,193.128 145.05,0 262.633,-86.465 262.633,-193.128 0,-106.664 -117.583,-193.129 -262.633,-193.129 C 117.584,-193.129 0,-106.664 0,0" /></g><g
           transform="translate(360.8389,141.2842)"
           id="g340"><path
             id="path342"
             style="fill:#ea1c23;fill-opacity:1;fill-rule:nonzero;stroke:none"
             d="m 0,0 c 0,101.814 112.238,184.35 250.694,184.35 138.457,0 250.697,-82.536 250.697,-184.35 0,-101.815 -112.24,-184.351 -250.697,-184.351 C 112.238,-184.351 0,-101.815 0,0" /></g><g
           transform="translate(372.7744,141.2842)"
           id="g344"><path
             id="path346"
             style="fill:#e91b23;fill-opacity:1;fill-rule:nonzero;stroke:none"
             d="M 0,0 C 0,96.967 106.895,175.571 238.758,175.571 370.621,175.571 477.515,96.967 477.515,0 477.515,-96.967 370.621,-175.572 238.758,-175.572 106.895,-175.572 0,-96.967 0,0" /></g><g
           transform="translate(384.7119,141.2842)"
           id="g348"><path
             id="path350"
             style="fill:#e81b23;fill-opacity:1;fill-rule:nonzero;stroke:none"
             d="M 0,0 C 0,92.118 101.548,166.793 226.818,166.793 352.089,166.793 453.637,92.118 453.637,0 453.637,-92.119 352.089,-166.793 226.818,-166.793 101.548,-166.793 0,-92.119 0,0" /></g><g
           transform="translate(396.6475,141.2842)"
           id="g352"><path
             id="path354"
             style="fill:#e71b23;fill-opacity:1;fill-rule:nonzero;stroke:none"
             d="M 0,0 C 0,87.27 96.204,158.014 214.881,158.014 333.557,158.014 429.762,87.27 429.762,0 c 0,-87.271 -96.205,-158.015 -214.881,-158.015 C 96.204,-158.015 0,-87.271 0,0" /></g><g
           transform="translate(408.583,141.2842)"
           id="g356"><path
             id="path358"
             style="fill:#e71b23;fill-opacity:1;fill-rule:nonzero;stroke:none"
             d="m 0,0 c 0,82.422 90.859,149.235 202.944,149.235 112.082,0 202.942,-66.813 202.942,-149.235 0,-82.422 -90.86,-149.235 -202.942,-149.235 C 90.859,-149.235 0,-82.422 0,0" /></g><g
           transform="translate(420.5215,141.2842)"
           id="g360"><path
             id="path362"
             style="fill:#e61b23;fill-opacity:1;fill-rule:nonzero;stroke:none"
             d="m 0,0 c 0,77.573 85.514,140.456 191.003,140.456 105.49,0 191.004,-62.883 191.004,-140.456 0,-77.573 -85.514,-140.457 -191.004,-140.457 C 85.514,-140.457 0,-77.573 0,0" /></g><g
           transform="translate(432.4561,141.2842)"
           id="g364"><path
             id="path366"
             style="fill:#e51b23;fill-opacity:1;fill-rule:nonzero;stroke:none"
             d="m 0,0 c 0,72.725 80.169,131.678 179.066,131.678 98.897,0 179.068,-58.953 179.068,-131.678 0,-72.726 -80.171,-131.678 -179.068,-131.678 C 80.169,-131.678 0,-72.726 0,0" /></g><g
           transform="translate(444.3926,141.2842)"
           id="g368"><path
             id="path370"
             style="fill:#e41b22;fill-opacity:1;fill-rule:nonzero;stroke:none"
             d="m 0,0 c 0,67.875 74.825,122.899 167.128,122.899 92.304,0 167.129,-55.024 167.129,-122.899 0,-67.877 -74.825,-122.9 -167.129,-122.9 C 74.825,-122.9 0,-67.877 0,0" /></g><g
           transform="translate(456.3291,141.2842)"
           id="g372"><path
             id="path374"
             style="fill:#e31b22;fill-opacity:1;fill-rule:nonzero;stroke:none"
             d="M 0,0 C 0,63.028 69.479,114.121 155.19,114.121 240.9,114.121 310.38,63.028 310.38,0 310.38,-63.028 240.9,-114.122 155.19,-114.122 69.479,-114.122 0,-63.028 0,0" /></g><g
           transform="translate(468.2637,141.2842)"
           id="g376"><path
             id="path378"
             style="fill:#e21b22;fill-opacity:1;fill-rule:nonzero;stroke:none"
             d="m 0,0 c 0,58.18 64.137,105.343 143.254,105.343 79.117,0 143.252,-47.163 143.252,-105.343 0,-58.181 -64.135,-105.343 -143.252,-105.343 C 64.137,-105.343 0,-58.181 0,0" /></g><g
           transform="translate(480.2021,141.2842)"
           id="g380"><path
             id="path382"
             style="fill:#e21a22;fill-opacity:1;fill-rule:nonzero;stroke:none"
             d="m 0,0 c 0,53.33 58.789,96.563 131.312,96.563 72.524,0 131.315,-43.233 131.315,-96.563 0,-53.332 -58.791,-96.565 -131.315,-96.565 C 58.789,-96.565 0,-53.332 0,0" /></g><g
           transform="translate(492.1367,141.2842)"
           id="g384"><path
             id="path386"
             style="fill:#e11a22;fill-opacity:1;fill-rule:nonzero;stroke:none"
             d="m 0,0 c 0,48.483 53.447,87.786 119.377,87.786 65.93,0 119.376,-39.303 119.376,-87.786 0,-48.483 -53.446,-87.786 -119.376,-87.786 C 53.447,-87.786 0,-48.483 0,0" /></g><g
           transform="translate(504.0732,141.2842)"
           id="g388"><path
             id="path390"
             style="fill:#e01a22;fill-opacity:1;fill-rule:nonzero;stroke:none"
             d="m 0,0 c 0,43.635 48.101,79.007 107.439,79.007 59.336,0 107.437,-35.372 107.437,-79.007 0,-43.636 -48.101,-79.008 -107.437,-79.008 C 48.101,-79.008 0,-43.636 0,0" /></g><g
           transform="translate(516.0098,141.2842)"
           id="g392"><path
             id="path394"
             style="fill:#df1a22;fill-opacity:1;fill-rule:nonzero;stroke:none"
             d="m 0,0 c 0,38.786 42.757,70.229 95.5,70.229 52.743,0 95.499,-31.443 95.499,-70.229 0,-38.787 -42.756,-70.229 -95.499,-70.229 C 42.757,-70.229 0,-38.787 0,0" /></g><g
           transform="translate(527.9453,141.2842)"
           id="g396"><path
             id="path398"
             style="fill:#de1a21;fill-opacity:1;fill-rule:nonzero;stroke:none"
             d="m 0,0 c 0,33.938 37.411,61.449 83.562,61.449 46.151,0 83.562,-27.511 83.562,-61.449 0,-33.938 -37.411,-61.451 -83.562,-61.451 C 37.411,-61.451 0,-33.938 0,0" /></g><g
           transform="translate(539.8809,141.2842)"
           id="g400"><path
             id="path402"
             style="fill:#de1a21;fill-opacity:1;fill-rule:nonzero;stroke:none"
             d="m 0,0 c 0,29.09 32.068,52.672 71.625,52.672 39.558,0 71.624,-23.582 71.624,-52.672 0,-29.091 -32.066,-52.672 -71.624,-52.672 C 32.068,-52.672 0,-29.091 0,0" /></g><g
           transform="translate(551.8174,141.2842)"
           id="g404"><path
             id="path406"
             style="fill:#dd1a21;fill-opacity:1;fill-rule:nonzero;stroke:none"
             d="m 0,0 c 0,24.241 26.722,43.893 59.688,43.893 32.963,0 59.685,-19.652 59.685,-43.893 0,-24.242 -26.722,-43.894 -59.685,-43.894 C 26.722,-43.894 0,-24.242 0,0" /></g><g
           transform="translate(563.7549,141.2842)"
           id="g408"><path
             id="path410"
             style="fill:#dc1a21;fill-opacity:1;fill-rule:nonzero;stroke:none"
             d="M 0,0 C 0,19.395 21.376,35.114 47.747,35.114 74.117,35.114 95.495,19.395 95.495,0 95.495,-19.394 74.117,-35.114 47.747,-35.114 21.376,-35.114 0,-19.394 0,0" /></g><g
           transform="translate(575.6904,141.2842)"
           id="g412"><path
             id="path414"
             style="fill:#db1a21;fill-opacity:1;fill-rule:nonzero;stroke:none"
             d="M 0,0 C 0,14.545 16.032,26.335 35.81,26.335 55.587,26.335 71.619,14.545 71.619,0 71.619,-14.545 55.587,-26.337 35.81,-26.337 16.032,-26.337 0,-14.545 0,0" /></g><g
           transform="translate(587.626,141.2842)"
           id="g416"><path
             id="path418"
             style="fill:#da1921;fill-opacity:1;fill-rule:nonzero;stroke:none"
             d="m 0,0 c 0,9.696 10.689,17.558 23.873,17.558 13.184,0 23.87,-7.862 23.87,-17.558 0,-9.697 -10.686,-17.557 -23.87,-17.557 C 10.689,-17.557 0,-9.697 0,0" /></g><g
           transform="translate(599.5625,141.2842)"
           id="g420"><path
             id="path422"
             style="fill:#da1921;fill-opacity:1;fill-rule:nonzero;stroke:none"
             d="m 0,0 c 0,4.848 5.343,8.777 11.934,8.777 6.59,0 11.934,-3.929 11.934,-8.777 0,-4.849 -5.344,-8.779 -11.934,-8.779 C 5.343,-8.779 0,-4.849 0,0" /></g></g></g><g
       id="g424"><g
         clip-path="url(#clipPath430)"
         id="g426"><g
           transform="translate(672.043,397.1899)"
           id="g432"><path
             id="path434"
             style="fill:#f04338;fill-opacity:1;fill-rule:nonzero;stroke:none"
             d="m 0,0 c 0,0 0.417,-83.904 0,-101.663 0,-7.177 -6.396,-13.008 -13.558,-13.076 -1.045,-0.005 -2.546,0.007 -2.763,0 h -63.453 z" /></g><g
           transform="translate(669.6338,396.9536)"
           id="g436"><path
             id="path438"
             style="fill:#f04338;fill-opacity:1;fill-rule:nonzero;stroke:none"
             d="m 0,0 -103.837,-114.503 h -59.364 c -2.925,0 -4.936,2.36 -4.088,5.284 0.48,1.659 2.012,3.151 3.487,4.122 C -145.335,-93.15 0,0 0,0" /></g><g
           transform="translate(669.3213,397.2656)"
           id="g440"><path
             id="path442"
             style="fill:#d91920;fill-opacity:1;fill-rule:nonzero;stroke:none"
             d="m 0,0 -105.088,-113.252 h -59.365 c -2.925,0 -4.937,2.36 -4.089,5.285 0.481,1.659 2.012,3.152 3.489,4.121 C -146.586,-91.898 0,0 0,0" /></g></g></g><g
       id="g444"><g
         clip-path="url(#clipPath450)"
         id="g446"><g
           transform="translate(669.3213,396.0146)"
           id="g452"><path
             id="path454"
             style="fill:#ffffff;fill-opacity:1;fill-rule:nonzero;stroke:none"
             d="m 0,0 -103.837,-113.252 h -59.364 c -2.925,0 -4.937,2.36 -4.089,5.284 0.48,1.66 2.012,3.153 3.488,4.123 C -145.334,-91.898 0,0 0,0" /></g></g></g><g
       id="g456"><g
         clip-path="url(#clipPath462)"
         id="g458"><g
           transform="translate(671.7314,397.5029)"
           id="g464"><path
             id="path466"
             style="fill:#d91920;fill-opacity:1;fill-rule:nonzero;stroke:none"
             d="m 0,0 c 0,0 -0.836,-82.653 -1.251,-100.411 0,-7.178 -6.397,-13.009 -13.56,-13.076 -1.044,-0.006 -2.546,0.007 -2.763,0 h -63.454 z" /></g></g></g><g
       id="g468"><g
         clip-path="url(#clipPath474)"
         id="g470"><g
           transform="translate(671.7314,396.2515)"
           id="g476"><path
             id="path478"
             style="fill:#ffffff;fill-opacity:1;fill-rule:nonzero;stroke:none"
             d="m 0,0 c 0,0 0.416,-82.652 0,-100.412 0,-7.176 -6.398,-13.008 -13.561,-13.075 -1.043,-0.006 -2.545,0.006 -2.761,0 h -63.454 z" /></g></g></g><g
       id="g480"><g
         clip-path="url(#clipPath486)"
         id="g482"><g
           transform="translate(173.374,245.8457)"
           id="g488"><path
             id="path490"
             style="fill:#1a377b;fill-opacity:1;fill-rule:evenodd;stroke:none"
             d="M 0,0 C 0.683,2.069 -0.479,3.804 -2.493,3.804 -4.562,3.804 -6.868,2.069 -7.551,0 -8.215,-2.013 -7.053,-3.747 -4.983,-3.747 -2.97,-3.747 -0.664,-2.013 0,0 m -10.907,0 c 0.682,2.069 -0.48,3.804 -2.493,3.804 -2.07,0 -4.375,-1.735 -5.058,-3.804 -0.663,-2.013 0.498,-3.747 2.567,-3.747 2.014,0 4.321,1.734 4.984,3.747 m 7.797,-21.645 c 3.024,9.173 -0.596,15.157 -8.091,15.157 -7.383,0 -14.97,-5.704 -18.142,-15.324 -3.025,-9.171 0.502,-15.269 7.886,-15.269 7.551,0 15.138,5.705 18.347,15.436 m -5.873,-0.167 c -1.77,-5.37 -6.08,-9.788 -10.443,-9.788 -4.362,0 -6.166,3.525 -4.044,9.955 1.917,5.818 5.875,9.676 10.239,9.676 4.641,0 6.222,-3.858 4.248,-9.843 m 28.127,-14.654 5.551,16.835 c 2.858,8.669 0.699,13.143 -6.126,13.143 -3.02,0 -6.352,-1.286 -8.507,-3.41 l 0.921,2.796 H 5.222 L -4.461,-36.466 H 1.3 l 5.662,17.171 c 1.568,4.754 4.653,7.495 8.514,7.495 3.803,0 5.338,-2.125 3.383,-8.054 l -5.477,-16.612 z m 33.574,15.269 c 2.619,7.943 0.824,14.709 -7.511,14.709 -7.607,0 -14.635,-5.368 -17.918,-15.324 -3.209,-9.732 0.781,-15.269 7.661,-15.269 4.475,0 8.013,1.398 11.398,3.859 l -2.196,3.692 c -2.436,-1.453 -4.69,-2.349 -7.15,-2.349 -3.58,0 -5.976,2.404 -4.729,8.055 h 19.411 c 0.257,0.615 0.683,1.564 1.034,2.627 m -5.116,2.126 H 33.953 c 2.053,4.698 5.288,7.383 9.147,7.383 4.754,0 5.549,-3.357 4.502,-7.383 m 43.561,-17.395 5.552,16.835 c 2.858,8.669 1.09,13.143 -5.735,13.143 -4.585,0 -7.432,-1.677 -10.425,-4.306 -0.645,2.796 -2.662,4.306 -6.634,4.306 -3.021,0 -5.962,-1.286 -8.117,-3.41 l 0.922,2.796 h -5.761 l -9.683,-29.364 h 5.762 l 5.661,17.171 c 1.568,4.754 4.261,7.495 8.121,7.495 3.804,0 4.948,-2.125 2.993,-8.054 l -5.477,-16.612 h 5.762 l 5.661,17.171 c 1.568,4.754 4.261,7.495 8.122,7.495 3.802,0 4.947,-2.125 2.993,-8.054 l -5.478,-16.612 z m 32.869,5.817 c -1.264,-0.616 -3.127,-1.175 -4.637,-1.175 -2.126,0 -2.763,0.784 -1.859,3.524 l 5.256,15.94 h 7.271 l 1.735,5.258 h -7.273 l 3.763,11.41 -6.645,-3.022 -2.766,-8.388 h -4.195 l -1.734,-5.258 h 4.196 l -5.589,-16.948 c -1.734,-5.255 -0.046,-7.773 4.036,-7.773 2.294,0 4.435,0.56 6.092,1.343 z m 24.824,-5.817 6.64,20.136 c 2.194,6.654 -1.228,9.842 -7.773,9.842 -4.139,0 -7.566,-0.894 -10.934,-2.628 l 0.798,-4.363 c 2.718,1.287 5.251,1.846 8.271,1.846 3.58,0 4.948,-1.79 3.897,-4.978 l -0.719,-2.181 c -1.384,0.728 -3.435,1.118 -6.177,1.118 -6.655,0 -12.667,-2.965 -14.825,-9.508 -2.379,-7.214 2.161,-9.899 6.916,-9.899 3.189,0 6.538,1.51 9.216,3.524 l -0.959,-2.909 z m -2.9,8.335 c -1.952,-1.847 -5.264,-3.748 -8.34,-3.748 -3.804,0 -5.004,1.958 -4.045,4.866 0.885,2.684 3.788,4.362 7.48,4.362 3.133,0 4.979,-0.502 6.288,-1.286 z m 22.378,-14.264 c 0.923,2.798 -0.834,3.916 -2.736,3.916 -1.231,0 -2.087,-0.224 -2.851,-0.502 l 0.963,1.9 c 5.499,0.224 11.01,2.518 13.039,8.67 1.826,5.537 -0.94,7.327 -6.654,9.843 -3.847,1.735 -4.504,2.797 -4.025,4.251 0.517,1.566 2.117,2.684 4.913,2.684 2.797,0 4.925,-0.839 6.778,-2.516 l 3.973,4.418 c -2.002,1.901 -5.194,3.243 -8.886,3.243 -5.873,0 -10.916,-2.74 -12.65,-7.998 -1.53,-4.641 0.062,-6.767 5.572,-9.229 3.714,-1.62 5.937,-2.683 5.2,-4.92 -0.683,-2.07 -2.804,-3.244 -6.439,-3.244 -2.741,0 -5.486,1.007 -7.599,2.907 l -4.068,-4.362 c 1.87,-1.789 4.822,-3.187 8.031,-3.634 l -2.057,-3.86 1.756,-0.782 c 0.782,0.502 1.508,0.839 2.513,0.839 1.064,0 1.57,-0.672 1.201,-1.791 -0.424,-1.286 -1.838,-2.181 -4.299,-2.181 -1.734,0 -3.302,0.503 -4.48,1.343 l -1.84,-1.846 c 1.59,-1.286 3.533,-2.013 6.217,-2.013 3.747,0 7.267,1.341 8.428,4.864 m 15.61,5.929 9.682,29.364 h -5.761 l -9.682,-29.364 z m 32.14,28.748 c -0.916,0.782 -2.224,1.23 -4.572,1.23 -2.909,0 -5.849,-1.453 -7.838,-3.41 l 0.923,2.796 h -5.762 l -9.683,-29.364 h 5.761 l 5.533,16.779 c 1.643,4.978 4.616,7.55 8.252,7.55 1.902,0 3.059,-0.392 4.068,-1.061 z m 1.414,-24.944 c 0.792,2.404 -0.539,4.475 -2.944,4.475 -2.405,0 -5.101,-2.071 -5.894,-4.475 -0.794,-2.405 0.557,-4.419 2.961,-4.419 2.405,0 5.083,2.014 5.877,4.419 m 10.637,0 c 0.793,2.404 -0.538,4.475 -2.944,4.475 -2.405,0 -5.1,-2.071 -5.893,-4.475 -0.794,-2.405 0.556,-4.419 2.961,-4.419 2.405,0 5.083,2.014 5.876,4.419 m 10.637,0 c 0.794,2.404 -0.538,4.475 -2.943,4.475 -2.405,0 -5.1,-2.071 -5.894,-4.475 -0.793,-2.405 0.556,-4.419 2.961,-4.419 2.406,0 5.083,2.014 5.876,4.419" /></g><g
           transform="translate(462.7822,374.229)"
           id="g492"><path
             id="path494"
             style="fill:#1a377b;fill-opacity:1;fill-rule:evenodd;stroke:none"
             d="m 0,0 c -5.689,0 -7.838,4.359 -6.632,9.383 1.365,5.689 6.379,10.081 12.069,10.081 5.689,0 7.864,-4.392 6.658,-9.417 C 10.729,4.359 5.69,0 0,0 m -0.481,-1.73 c 7.654,0 13.474,5.124 15.071,11.777 1.438,5.99 -1.019,11.147 -8.671,11.147 -7.652,0 -13.448,-5.157 -15.047,-11.811 -1.436,-5.989 0.993,-11.113 8.647,-11.113 m -1.116,5.057 c 0.934,3.893 2.029,7.753 3.161,11.645 h 3.328 c 0.898,0 2.131,-0.266 1.717,-1.996 C 6.13,10.979 4.504,10.58 2.606,10.58 c -0.465,0 -0.932,0.133 -1.35,0.2 C 2.123,8.285 2.962,5.822 3.627,3.327 h 3.294 c -1.019,1.996 -1.944,3.96 -2.763,5.956 1.199,0 4.18,0.499 5.01,3.959 0.6,2.495 -0.867,3.46 -3.262,3.46 H -0.482 C -1.653,12.244 -2.923,7.785 -4.227,3.327 Z m -208.466,-96.83 c -36.59,-1.211 -32.706,21.827 -29.063,32.058 16.347,45.927 91.123,31.149 99.863,55.704 3.884,10.913 -7.865,13.295 -16.241,12.505 -10.7,-1.01 -16.657,-2.425 -25.773,-4.554 l 7.112,18.489 c 12.089,1.778 16.646,2.935 33.321,4.254 19.948,1.577 42.412,-4.774 33.591,-29.557 -5.746,-16.144 -22.397,-52.067 -34.536,-86.172 l -30.273,-0.173 c 1.481,3.153 3.004,7.919 3.004,7.919 0,0 -21.538,-9.83 -41.005,-10.473 m 47.307,27.116 c 3.375,8.089 7.806,18.855 14.025,34.044 -15.546,-10.458 -53.115,-9.322 -60.316,-29.557 -3.804,-10.686 5.251,-14.034 14.324,-13.415 14.47,0.987 31.967,8.928 31.967,8.928 m -203.049,-27.116 c -36.59,-1.211 -32.705,21.827 -29.062,32.058 16.346,45.927 91.123,31.149 99.863,55.704 3.884,10.913 -7.865,13.295 -16.241,12.505 -10.7,-1.01 -16.658,-2.425 -25.774,-4.554 l 7.112,18.489 c 12.091,1.778 16.648,2.935 33.322,4.254 19.947,1.577 42.411,-4.774 33.591,-29.557 -5.746,-16.144 -22.397,-52.067 -34.535,-86.172 l -30.274,-0.173 c 1.481,3.153 3.003,7.919 3.003,7.919 0,0 -21.537,-9.83 -41.005,-10.473 m 47.307,27.116 c 3.376,8.089 7.806,18.855 14.025,34.044 -15.546,-10.458 -53.114,-9.322 -60.315,-29.557 -3.804,-10.686 5.251,-14.034 14.324,-13.415 14.469,0.987 31.966,8.928 31.966,8.928 m 91.853,54.84 c -7.215,-19.593 -30.007,-79.238 -30.007,-79.238 l -31.11,-0.164 c 0.937,1.992 18.298,47.674 30.953,81.033 12.657,33.705 29.697,36.643 54.163,35.558 6.615,-0.294 14.152,-1.706 20.512,-2.856 l -8.297,-19.561 c -12.874,2.894 -28.832,5.275 -36.214,-14.772 m 127.662,-81.956 c -11.953,0 -23.214,1.938 -33.814,4.557 l 9.351,22.891 c 7.764,-3.556 16.04,-6.531 25.541,-6.531 7.049,0 18.091,2.273 21.488,11.823 5.665,15.915 -32.859,28.42 -23.552,54.567 6.636,18.643 24.046,31.149 54.061,31.149 11.142,0 22.505,-1.688 32.919,-3.735 l -8.838,-22.415 c -6.03,2.882 -12.853,5.233 -21.294,5.233 -9.322,0 -19.276,-1.137 -22.757,-10.913 -5.098,-14.325 33.103,-27.74 23.068,-55.933 -8.336,-23.419 -37.073,-30.693 -56.173,-30.693" /></g></g></g></g></svg>