<svg width="126" height="28" viewBox="0 0 126 28" fill="none" xmlns="http://www.w3.org/2000/svg">
<g clip-path="url(#clip0_4277_85696)">
<path d="M4.23525 0.5V8.615H4.32462C4.8032 7.76568 5.51915 7.0783 6.38263 6.63914C7.13989 6.24637 7.97624 6.03479 8.82715 6.02072C9.77808 5.98836 10.7259 6.14711 11.6158 6.48776C12.2901 6.76053 12.8815 7.20793 13.3308 7.78504C13.7685 8.38446 14.0691 9.07486 14.2105 9.80623C14.3866 10.6746 14.4716 11.5594 14.4639 12.4458V22.0389H10.23V13.2308C10.23 11.9437 10.0309 10.9834 9.63249 10.3496C9.23412 9.71594 8.52793 9.39917 7.51391 9.39936C6.36046 9.39936 5.52534 9.74625 5.00855 10.44C4.49176 11.1338 4.23326 12.2752 4.23308 13.864V22.0395H0V0.500553L4.23525 0.5Z" fill="#FF6000"/>
<path d="M21.0263 18.2993C21.6624 18.9229 22.5768 19.2343 23.7696 19.2334C24.5541 19.2544 25.3255 19.0277 25.9767 18.5847C26.5924 18.1525 26.9701 17.6946 27.1099 17.2111H30.8381C30.2416 19.0814 29.3272 20.4185 28.0948 21.2221C26.8624 22.0258 25.3711 22.428 23.621 22.4288C22.5004 22.4457 21.3868 22.2461 20.3402 21.8406C19.4032 21.4738 18.5578 20.9021 17.8647 20.1664C17.1738 19.4182 16.641 18.5353 16.2989 17.5718C15.921 16.5078 15.7342 15.3841 15.7472 14.2536C15.7376 13.1416 15.9296 12.0372 16.3138 10.9953C16.6667 10.0256 17.2129 9.13962 17.9184 8.39234C18.6239 7.64506 19.4738 7.05243 20.4152 6.65123C21.4289 6.21893 22.5201 6.00324 23.6202 6.01771C24.8082 5.98924 25.9853 6.25324 27.0501 6.78696C27.9983 7.27768 28.8203 7.98525 29.4509 8.85348C30.0879 9.74109 30.5491 10.745 30.809 11.8099C31.0896 12.9429 31.1905 14.1138 31.1078 15.2789H19.9822C20.0413 16.669 20.3893 17.6758 21.0263 18.2993ZM25.8132 10.0928C25.3062 9.52996 24.5357 9.24836 23.5018 9.248C22.9213 9.22784 22.3443 9.34664 21.8178 9.59471C21.4029 9.79991 21.0367 10.0932 20.7441 10.4546C20.4865 10.7755 20.2939 11.1445 20.1772 11.5406C20.0766 11.8746 20.0116 12.2185 19.9833 12.5665H26.872C26.673 11.4813 26.3201 10.6567 25.8132 10.0928Z" fill="#FF6000"/>
<path d="M36.4458 6.44082V8.4318H36.5056C36.9692 7.63637 37.6537 6.99628 38.474 6.5911C39.2953 6.20337 40.1923 6.0075 41.0986 6.01801C42.1827 5.98887 43.2575 6.22694 44.2303 6.71171C45.0816 7.15492 45.8252 7.78358 46.4075 8.55241C47.0004 9.35091 47.4358 10.2573 47.6901 11.2222C47.9712 12.259 48.1118 13.3296 48.1078 14.4047C48.1112 15.4253 47.9706 16.4412 47.6901 17.4215C47.4303 18.3491 47.0003 19.2189 46.4225 19.9856C45.8553 20.7303 45.1317 21.3383 44.3039 21.7656C43.382 22.2256 42.3639 22.4533 41.3362 22.4293C40.4236 22.4388 39.5209 22.2376 38.6967 21.8411C37.8948 21.4519 37.2102 20.8531 36.7139 20.1065H36.6542V27.4967H32.4194V6.44082H36.4458ZM41.9484 18.8095C42.4062 18.5372 42.7944 18.16 43.0819 17.7084C43.3824 17.2241 43.5899 16.6867 43.6933 16.1245C43.8129 15.5184 43.8728 14.9019 43.8723 14.2838C43.8727 13.665 43.8078 13.048 43.6786 12.4431C43.5616 11.8708 43.3444 11.3242 43.0373 10.8291C42.7459 10.3636 42.3532 9.97161 41.8892 9.68292C41.3693 9.37761 40.7751 9.22607 40.1743 9.24555C39.5637 9.22349 38.9592 9.37502 38.4294 9.68292C37.9703 9.96627 37.5823 10.3534 37.296 10.814C36.9969 11.3045 36.7896 11.8465 36.6846 12.4129C36.564 13.0289 36.504 13.6554 36.5056 14.2833C36.5048 14.9021 36.5699 15.5192 36.6995 16.124C36.812 16.6859 37.0242 17.2225 37.3259 17.7078C37.8348 18.4254 38.5834 18.9324 39.4333 19.1348C40.2831 19.3372 41.1767 19.2215 41.9487 18.8089L41.9484 18.8095Z" fill="#FF6000"/>
<path d="M53.2515 18.1663C53.4323 18.4893 53.6819 18.7675 53.9822 18.9809C54.2943 19.1983 54.6429 19.3565 55.011 19.4479C55.4058 19.5495 55.8116 19.6001 56.2189 19.5987C56.5349 19.5969 56.8498 19.5614 57.1584 19.493C57.4714 19.4283 57.773 19.3164 58.0531 19.1611C58.3187 19.0129 58.548 18.8064 58.7243 18.5567C58.9116 18.277 59.0056 17.944 58.9926 17.6064C58.9926 16.963 58.5701 16.4803 57.725 16.1583C56.5714 15.751 55.3902 15.4284 54.1908 15.1929C53.5742 15.0524 52.9727 14.8865 52.3862 14.6951C51.8317 14.5199 51.3046 14.2659 50.8206 13.9409C50.3703 13.6372 49.9932 13.2352 49.717 12.7645C49.4243 12.2356 49.2798 11.6358 49.2993 11.0299C49.2646 10.1673 49.4658 9.31172 49.8808 8.55731C50.2565 7.9258 50.7852 7.40152 51.4168 7.03393C52.0832 6.65079 52.8094 6.38553 53.5642 6.24957C54.3703 6.09785 55.1887 6.02215 56.0087 6.02347C56.8249 6.02166 57.6393 6.10246 58.4396 6.26468C59.1823 6.40934 59.894 6.68507 60.5422 7.07925C61.1608 7.46393 61.6858 7.98462 62.0781 8.60264C62.5145 9.3285 62.7655 10.1527 62.8088 11.001H58.784C58.7244 10.1769 58.4166 9.61869 57.8605 9.32656C57.2488 9.02257 56.5735 8.87252 55.8921 8.88918C55.633 8.89042 55.3742 8.90556 55.1167 8.93452C54.8548 8.96043 54.5984 9.02657 54.3562 9.13067C54.1312 9.22844 53.932 9.37825 53.7746 9.56805C53.6062 9.78708 53.5214 10.0602 53.5359 10.3373C53.5312 10.5148 53.5663 10.6911 53.6387 10.8529C53.711 11.0147 53.8187 11.1578 53.9536 11.2714C54.2756 11.5366 54.6453 11.7364 55.0423 11.8596C55.5461 12.0254 56.059 12.1614 56.5785 12.2667C57.1549 12.3876 57.7414 12.5184 58.338 12.659C58.9478 12.7982 59.5501 12.9693 60.1423 13.1717C60.7005 13.3586 61.2282 13.6281 61.7082 13.9714C62.1603 14.2977 62.5369 14.7196 62.8118 15.2077C63.1063 15.7687 63.2502 16.398 63.2292 17.0328C63.2696 17.8764 63.0863 18.7156 62.6982 19.4635C62.3102 20.2114 61.7315 20.8408 61.0221 21.2864C60.3327 21.7221 59.569 22.0239 58.7702 22.1763C57.9205 22.3475 57.0562 22.4334 56.1898 22.4326C55.3081 22.4339 54.4285 22.3429 53.5652 22.1612C52.7576 21.9989 51.985 21.6924 51.2837 21.2559C50.6167 20.833 50.0553 20.2601 49.6431 19.5817C49.1877 18.7888 48.9461 17.8888 48.9424 16.9718H52.9688C52.9564 17.3883 53.054 17.8006 53.2515 18.1663Z" fill="#FF6000"/>
<path d="M64.5403 4.02946V0.5H68.7753V4.02946H64.5403ZM68.7753 6.44298V22.0395H64.5403V6.44298H68.7753Z" fill="#FF6000"/>
<path d="M78.4303 0.5L75.9239 4.3509H81.8309V14.5434C81.8309 16.8602 80.2827 18.613 77.9928 18.613C75.6411 18.613 74.3097 16.9542 74.0313 14.7629L70.0386 15.5767C70.6885 19.6152 73.5356 22.4323 77.9917 22.4323C82.8201 22.4323 86.0388 19.1138 86.0388 14.5434V0.5H78.4303Z" fill="#7723DB"/>
<path d="M105.091 0.500277L102.584 4.35118H109.641V21.9631H113.85V4.3509H118.327L120.834 0.5L105.091 0.500277Z" fill="#7723DB"/>
<path d="M122.317 0.5L119.811 4.3509H123.494L126 0.5H122.317Z" fill="#FF6000"/>
<path d="M91.8222 13.2118H99.2793L101.745 9.42381H91.8222V4.3509H101.098L103.604 0.5H87.6135V21.9622H101.098L103.604 18.1114H91.8222V13.2118Z" fill="#7723DB"/>
</g>
<defs>
<clipPath id="clip0_4277_85696">
<rect width="126" height="27" fill="white" transform="translate(0 0.5)"/>
</clipPath>
</defs>
</svg>
