<svg width="161" height="28" viewBox="0 0 161 28" fill="none" xmlns="http://www.w3.org/2000/svg">
<path d="M24.4868 6.11059L31.5093 9.28563C31.5093 9.28563 16.4002 12.778 0.333496 27.3828C0.333496 27.3828 11.5058 10.1323 24.4868 6.11059Z" fill="#0C4DA2"/>
<path d="M4.16406 9.17871C4.16406 9.17871 13.7403 1.24131 35.5527 0.500518C35.5527 0.500518 18.6348 3.88703 9.37781 12.8828L4.16406 9.17871Z" fill="#ED1C24"/>
<path d="M34.3155 15.9202H38.2738C38.2033 16.6926 38.4125 17.2715 38.9016 17.6574C39.4289 18.0433 40.1777 18.2363 41.1482 18.2363C41.8466 18.2363 42.4673 18.1015 43.0104 17.8309C43.5141 17.5613 43.7988 17.1939 43.8641 16.7305C43.9624 16.0358 43.221 15.5149 41.6404 15.1675C40.9577 15.0514 40.4502 14.9358 40.1177 14.8197C38.1308 14.3189 36.8384 13.7197 36.2382 13.025C35.5596 12.3304 35.3031 11.4041 35.4667 10.246C35.6736 8.77932 36.4076 7.5638 37.6702 6.59849C38.9595 5.71105 40.5362 5.26688 42.3988 5.26688C44.4164 5.26688 45.9646 5.71105 47.0425 6.59849C48.0308 7.5638 48.455 8.8187 48.3152 10.362H45.8119C45.0741 10.362 44.5572 10.0344 44.2624 9.37769C44.1291 9.22362 43.9953 9.06917 43.8628 8.91421C43.4461 8.56695 42.8306 8.3932 42.0155 8.3932C41.2381 8.3932 40.6397 8.50929 40.2199 8.74058C39.8377 8.97226 39.614 9.31964 39.5486 9.78299C39.4613 10.4009 40.3962 10.9218 42.3546 11.3465C42.5766 11.4241 42.7722 11.4821 42.9411 11.52C43.1104 11.559 43.2723 11.5777 43.4281 11.5777C45.3364 12.0799 46.6318 12.6585 47.3158 13.3144C47.9545 14.0095 48.1923 14.9358 48.0287 16.0938C47.7887 17.7926 46.9824 19.1047 45.6097 20.031C44.3257 20.8806 42.5195 21.3047 40.1909 21.3047C37.9786 21.3047 36.3913 20.8613 35.4311 19.9729C34.4305 19.0855 34.0509 17.7926 34.2909 16.0938L34.3155 15.9202Z" fill="#ED1C24"/>
<path d="M62.1196 21.0078L63.1751 13.5384C63.3878 12.0331 63.7893 10.7694 64.3802 9.74655C64.9707 8.72422 65.6977 7.90339 66.5619 7.28559C67.38 6.70654 68.3044 6.28244 69.3322 6.0119C70.3597 5.74225 71.3981 5.60659 72.4457 5.60659H72.7365H73.0277L72.447 9.71728H71.1081C69.9819 9.71728 69.1097 9.98795 68.4904 10.5281C67.8695 11.0692 67.4788 11.9174 67.3151 13.0755L66.1942 21.0078H62.1196Z" fill="#ED1C24"/>
<path d="M81.3196 13.2567C80.7374 13.5272 79.9452 13.7777 78.9432 14.0095L77.563 14.2987C76.837 14.4924 76.297 14.7429 75.9434 15.0514C75.6114 15.4769 75.4156 15.901 75.3559 16.3256C75.2739 16.9042 75.3832 17.3675 75.6832 17.7149C75.989 18.0243 76.4712 18.1782 77.1314 18.1782C78.2176 18.1782 79.1152 17.8698 79.8236 17.2519C80.5313 16.6349 80.9625 15.7853 81.1152 14.704L81.3196 13.2567ZM81.2447 20.3784C80.3694 20.8037 79.4688 21.0634 78.544 21.1602C77.6179 21.2557 76.8063 21.3047 76.1075 21.3047C74.7106 21.3047 73.5412 20.9285 72.6001 20.1759C71.6582 19.4232 71.3103 18.1782 71.5555 16.4412C71.785 14.8197 72.4233 13.6621 73.4726 12.967C74.5212 12.2723 75.799 11.809 77.3074 11.5777C77.5012 11.5777 77.7381 11.5489 78.018 11.4908C78.2974 11.4332 78.615 11.3853 78.97 11.3465C80.7098 11.1147 81.6351 10.6134 81.7438 9.84103C81.8258 9.26198 81.578 8.88544 81.0011 8.71181C80.4238 8.53806 79.8829 8.45125 79.3792 8.45125C78.8352 8.45125 78.3396 8.52885 77.8908 8.68305C77.442 8.8375 77.0906 9.12722 76.8366 9.55131H72.9366C73.2603 8.35535 73.9434 7.37087 74.9839 6.59849C76.1574 5.71105 77.7136 5.26688 79.6543 5.26688C81.8276 5.26688 83.4052 5.63382 84.3887 6.36682C85.4044 7.13919 85.8149 8.21957 85.6189 9.60936L84.8744 14.8778C84.6564 16.422 84.2036 17.6279 83.5187 18.4967C82.8331 19.3651 82.0747 19.9931 81.2447 20.3784Z" fill="#ED1C24"/>
<path d="M100.753 5.60659L99.9516 11.2808L105.701 5.60659H110.592L104.227 11.5125L108.473 21.0078H103.584L101.468 15.7967C101.032 14.7545 100.591 14.3114 100.142 14.4649C99.693 14.6198 99.447 14.8514 99.4036 15.16L99.101 17.3019L98.577 21.0078H94.5024L97.3168 1.09048H99.4123C99.9554 1.09048 100.394 1.28367 100.728 1.66903C101.061 2.05566 101.192 2.49983 101.121 3.00077L100.753 5.60659Z" fill="#0C4DA2"/>
<path d="M117.885 13.2567C117.303 13.5272 116.511 13.7777 115.509 14.0095L114.129 14.2987C113.403 14.4924 112.863 14.7429 112.509 15.0514C112.177 15.4769 111.981 15.901 111.922 16.3256C111.84 16.9042 111.949 17.3675 112.249 17.7149C112.554 18.0243 113.037 18.1782 113.697 18.1782C114.783 18.1782 115.681 17.8698 116.389 17.2519C117.097 16.6349 117.528 15.7853 117.681 14.704L117.885 13.2567ZM117.81 20.3784C116.935 20.8037 116.034 21.0634 115.109 21.1602C114.184 21.2557 113.372 21.3047 112.673 21.3047C111.276 21.3047 110.107 20.9285 109.166 20.1759C108.224 19.4232 107.876 18.1782 108.122 16.4412C108.351 14.8197 108.989 13.6621 110.038 12.967C111.087 12.2723 112.365 11.809 113.873 11.5777C114.067 11.5777 114.304 11.5489 114.584 11.4908C114.863 11.4332 115.181 11.3853 115.536 11.3465C117.276 11.1147 118.2 10.6134 118.31 9.84103C118.391 9.26198 118.144 8.88544 117.567 8.71181C116.989 8.53806 116.448 8.45125 115.945 8.45125C115.401 8.45125 114.905 8.52885 114.456 8.68305C114.007 8.8375 113.656 9.12722 113.403 9.55131H109.503C109.826 8.35535 110.509 7.37087 111.55 6.59849C112.723 5.71105 114.279 5.26688 116.22 5.26688C118.393 5.26688 119.971 5.63382 120.954 6.36682C121.97 7.13919 122.381 8.21957 122.184 9.60936L121.44 14.8778C121.222 16.422 120.769 17.6279 120.084 18.4967C119.399 19.3651 118.641 19.9931 117.81 20.3784Z" fill="#0C4DA2"/>
<path d="M121.155 21.0078L122.21 13.5384C122.423 12.0331 122.824 10.7694 123.415 9.74655C124.006 8.72422 124.733 7.90339 125.597 7.28559C126.415 6.70654 127.34 6.28244 128.367 6.0119C129.395 5.74225 130.433 5.60659 131.481 5.60659H131.772H132.063L131.482 9.71728H130.143C129.017 9.71728 128.144 9.98795 127.525 10.5281C126.905 11.0692 126.514 11.9174 126.35 13.0755L125.229 21.0078H121.155Z" fill="#0C4DA2"/>
<path d="M134.975 13.43C134.599 16.0935 135.166 17.5701 136.678 17.8594C138.189 18.1486 139.384 17.7922 140.264 16.7883C140.673 16.364 141.019 15.6982 141.303 14.7906C141.585 13.8843 141.722 12.9867 141.712 12.0983C141.701 11.2112 141.493 10.4198 141.087 9.72463C140.68 9.02986 139.992 8.68261 139.022 8.68261C137.703 8.68261 136.742 9.16565 136.14 10.1299C135.538 11.0951 135.15 12.1957 134.975 13.43ZM140.67 20.0887L140.81 19.1044C139.958 20.1855 138.922 20.861 137.7 21.1306C136.478 21.4004 135.318 21.3044 134.219 20.8414C133.12 20.3781 132.242 19.5198 131.585 18.2647C130.927 17.0107 130.744 15.3605 131.033 13.314C131.371 10.9215 132.198 8.98192 133.515 7.49534C134.83 6.01004 136.711 5.26644 139.156 5.26644C141.019 5.26644 142.674 5.76827 144.124 6.77181C145.573 7.77586 146.107 9.62861 145.725 12.3299L144.572 20.494C144.19 23.1955 143.134 25.039 141.404 26.0234C139.673 27.0078 137.877 27.5 136.014 27.5C132.443 27.5 130.466 25.8398 130.082 22.5205H134.331C134.565 23.0606 134.982 23.4756 135.581 23.7653C136.181 24.0547 136.81 24.1319 137.469 23.997C138.129 23.8614 138.764 23.4848 139.375 22.8677C139.986 22.2499 140.418 21.3236 140.67 20.0887Z" fill="#0C4DA2"/>
<path d="M151.548 9.4408C150.607 10.3293 150.051 11.6509 149.881 13.4064C149.71 15.1635 149.867 16.3883 150.351 17.0834C150.541 17.3928 150.911 17.6532 151.463 17.8649C152.015 18.0774 152.604 18.0966 153.231 17.923C153.857 17.7492 154.452 17.3147 155.016 16.62C155.579 15.9254 155.989 14.8061 156.247 13.2619C156.443 11.8722 156.366 10.8302 156.019 10.1356C155.671 9.4408 155.219 8.99752 154.665 8.80382C154.11 8.61089 153.529 8.6013 152.922 8.77493C152.315 8.94855 151.857 9.17115 151.548 9.4408ZM147.314 19.6308C146.597 18.9362 146.147 18.0006 145.964 16.8224C145.781 15.6456 145.78 14.4199 145.96 13.1459C146.107 12.1038 146.4 11.0619 146.838 10.0199C147.276 8.97745 147.855 8.10905 148.574 7.41403C149.747 6.25591 151.143 5.57125 152.765 5.35875C154.385 5.14677 155.804 5.27207 157.019 5.7349C158.412 6.31396 159.357 7.31839 159.854 8.74565C160.333 10.0199 160.454 11.506 160.214 13.204C160.039 14.4397 159.752 15.5008 159.356 16.3883C158.958 17.2767 158.503 18.0295 157.989 18.6464C156.877 19.9206 155.581 20.712 154.103 21.0205C152.773 21.3679 151.478 21.3967 150.219 21.1074C148.959 20.8176 147.991 20.3259 147.314 19.6308Z" fill="#0C4DA2"/>
<path d="M59.1329 9.19587L58.2483 15.4568C58.1171 16.3831 57.7395 17.059 57.1178 17.4831C56.4949 17.9087 55.8346 18.1202 55.1357 18.1202C54.4373 18.1202 53.846 17.9087 53.3629 17.4831C52.8787 17.059 52.7031 16.3831 52.834 15.4568L53.7188 9.19587H49.6443L48.8742 14.6461C48.4978 17.3095 48.9383 19.0667 50.1964 19.9154C51.4533 20.7649 52.9111 21.2271 54.5695 21.3047C56.2768 21.3047 57.9083 20.8806 59.4644 20.031C61.0199 19.1823 61.9921 17.3876 62.3795 14.6461L63.1496 9.19587H59.1329Z" fill="#ED1C24"/>
<path d="M63.2843 8.24219L63.6554 5.61591H61.6176C61.036 5.61591 60.5323 5.80922 60.1098 6.19496C59.6861 6.58122 59.4369 7.04456 59.3605 7.58424L59.2676 8.24219H63.2843Z" fill="#ED1C24"/>
<path d="M53.8534 8.24219L54.2245 5.61591H51.8103C50.8582 5.61591 50.0513 6.31361 49.9189 7.25144L49.7788 8.24219H53.8534Z" fill="#ED1C24"/>
<path d="M92.0446 5.63949L92.368 3.02818C92.435 2.48671 92.2981 2.02604 91.9585 1.64516C91.6182 1.26556 91.1956 1.0794 90.6916 1.08797L88.5967 1.12351L88.0306 5.69435C85.9305 5.9902 86.0221 8.36921 86.0221 8.36921H87.6993L86.4839 18.1842C86.2636 19.9642 86.8926 20.8991 88.3724 20.9897C89.8513 21.0806 91.2367 21.0759 92.5267 20.9772L92.9005 17.9597L91.678 17.9804C90.9016 17.9935 90.5543 17.6717 90.6362 17.0134L91.6997 8.42521L92.1072 8.41831C92.6502 8.4091 93.1388 8.21796 93.5725 7.84309C94.0053 7.46962 94.2585 6.99182 94.3306 6.41149L94.4312 5.59896L92.0446 5.63949Z" fill="#ED1C24"/>
</svg>
